<svg width="24" 
    height="24" 
    viewBox="0 0 24 24" 
    fill="none" 
    xmlns="http://www.w3.org/2000/svg">
    <path d="M23 12.2445C23 11.34 22.9251 10.68 22.7631 9.99558H12.2245V14.0778H18.4104C18.2857 15.0922 17.6123 16.62 16.1156 17.6466L16.0946 17.7833L19.4267 20.313L19.6576 20.3356C21.7777 18.4167 23 15.5933 23 12.2445" 
        fill="#4285F4"/>
    <path d="M12.2244 23C15.255 23 17.7992 22.0222 19.6575 20.3356L16.1155 17.6466C15.1677 18.2944 13.8956 18.7466 12.2244 18.7466C9.25616 18.7466 6.7369 16.8278 5.83885 14.1756L5.70722 14.1865L2.24245 16.8143L2.19714 16.9377C4.04293 20.531 7.83433 23 12.2244 23Z" 
        fill="#34A853"/>
    <path d="M5.83897 14.1756C5.60201 13.4911 5.46487 12.7577 5.46487 12C5.46487 11.2422 5.60201 10.5089 5.8265 9.82443L5.82022 9.67867L2.31203 7.00867L2.19725 7.06218C1.43651 8.5533 1 10.2278 1 12C1 13.7722 1.43651 15.4466 2.19725 16.9377L5.83897 14.1756" 
        fill="#FBBC05"/>
    <path d="M12.2244 5.2533C14.3321 5.2533 15.7538 6.14552 16.5645 6.89113L19.7323 3.86C17.7868 2.08778 15.255 1 12.2244 1C7.83433 1 4.04293 3.46887 2.19714 7.06217L5.82639 9.82443C6.7369 7.17221 9.25616 5.2533 12.2244 5.2533" 
        fill="#EB4335"/>
</svg>
