<svg width="24" height="22" viewBox="0 0 24 22" fill="none" xmlns="http://www.w3.org/2000/svg">
<path d="M20.8401 3.60987C20.3293 3.09888 19.7229 2.69352 19.0554 2.41696C18.388 2.14039 17.6725 1.99805 16.9501 1.99805C16.2276 1.99805 15.5122 2.14039 14.8447 2.41696C14.1772 2.69352 13.5708 3.09888 13.0601 3.60987L12.0001 4.66987L10.9401 3.60987C9.90837 2.57818 8.50909 1.99858 7.05006 1.99858C5.59103 1.99858 4.19175 2.57818 3.16006 3.60987C2.12837 4.64156 1.54877 6.04084 1.54877 7.49987C1.54877 8.95891 2.12837 10.3582 3.16006 11.3899L4.22006 12.4499L12.0001 20.2299L19.7801 12.4499L20.8401 11.3899C21.3511 10.8791 21.7564 10.2727 22.033 9.60523C22.3095 8.93777 22.4519 8.22236 22.4519 7.49987C22.4519 6.77738 22.3095 6.06198 22.033 5.39452C21.7564 4.72706 21.3511 4.12063 20.8401 3.60987V3.60987Z" stroke="#383838" stroke-opacity="0.8" stroke-width="2" stroke-linecap="round" stroke-linejoin="round"/>
</svg>
