<svg width="28" 
    height="28" 
    viewBox="0 0 28 28" 
    fill="none" 
    xmlns="http://www.w3.org/2000/svg">
    <path fill-rule="evenodd" 
        clip-rule="evenodd" 
        d="M13.4653 3.84036C13.4653 4.16119 13.6792 4.37508 14 4.37508C14.3208 4.37508 14.5347 4.16119 14.5347 3.84036V1.70147C14.5347 1.38064 14.3208 1.16675 14 1.16675C13.6792 1.16675 13.4653 1.38064 13.4653 1.70147V3.84036ZM15.6041 26.8334H12.3958C11.6472 26.8334 10.7916 26.1918 10.7916 24.9084V22.6626C10.7916 21.5931 10.2569 20.6306 9.40137 19.882C7.47637 18.3848 6.51387 16.2459 6.51387 13.8931C6.62081 9.82926 9.93609 6.62093 13.893 6.51398C15.925 6.51398 17.85 7.26259 19.2403 8.65287C20.6305 10.0431 21.4861 11.9681 21.4861 14.0001C21.4861 16.2459 20.5236 18.3848 18.7055 19.7751C17.743 20.5237 17.2083 21.7001 17.2083 22.7695V23.0846L17.2083 23.0903L17.2083 23.0961V25.2293C17.2083 26.0848 16.4597 26.8334 15.6041 26.8334ZM18.0639 18.9195C16.9476 19.8328 16.2165 21.2276 16.1447 22.5556H11.8598C11.8278 21.2066 11.1892 19.9642 10.043 19.0265C8.43887 17.8501 7.58331 15.9251 7.58331 13.8931C7.69025 10.4709 10.5778 7.58343 14 7.58343C15.7111 7.58343 17.3153 8.22509 18.4916 9.40148C19.775 10.6848 20.4166 12.289 20.4166 14.0001C20.4166 15.9251 19.5611 17.7431 18.0639 18.9195ZM11.8611 23.6251H16.1389V25.2293C16.1389 25.5501 15.925 25.764 15.6041 25.764H12.3958C11.8611 25.764 11.8611 25.1223 11.8611 24.9084V23.6251ZM21.1653 7.36955C21.0583 7.36955 20.8445 7.36955 20.7375 7.2626C20.5236 7.04871 20.5236 6.72788 20.7375 6.51399L22.2347 5.01677C22.4486 4.80288 22.7695 4.80288 22.9833 5.01677C23.1972 5.23066 23.1972 5.55149 22.9833 5.76538L21.4861 7.2626C21.4861 7.2626 21.2722 7.36955 21.1653 7.36955ZM6.40691 7.26256C6.51385 7.3695 6.72774 7.3695 6.83468 7.3695C6.94163 7.3695 7.04857 7.26256 7.15552 7.15561C7.36941 6.94172 7.36941 6.62089 7.15552 6.407L5.6583 4.90978C5.44441 4.69589 5.12357 4.69589 4.90968 4.90978C4.6958 5.12367 4.6958 5.4445 4.90968 5.65839L6.40691 7.26256Z" 
        fill="#FFFFFF"/>
    <path d="M9.40137 19.882L9.66477 19.581L9.65607 19.5734L9.64694 19.5663L9.40137 19.882ZM6.51387 13.8931L6.11387 13.8826V13.8931H6.51387ZM13.893 6.51398V6.11384L13.8822 6.11413L13.893 6.51398ZM19.2403 8.65287L18.9574 8.93571L18.9574 8.93571L19.2403 8.65287ZM18.7055 19.7751L18.4625 19.4573L18.46 19.4594L18.7055 19.7751ZM17.2083 23.0846L16.8083 23.0846L16.8083 23.0862L17.2083 23.0846ZM17.2083 23.0903L17.6083 23.0919L17.6083 23.0888L17.2083 23.0903ZM17.2083 23.0961L16.8083 23.0945V23.0961H17.2083ZM16.1447 22.5556V22.9556H16.5236L16.5441 22.5772L16.1447 22.5556ZM18.0639 18.9195L17.8167 18.6049L17.8106 18.61L18.0639 18.9195ZM11.8598 22.5556L11.4599 22.5651L11.4692 22.9556H11.8598V22.5556ZM10.043 19.0265L10.2963 18.7169L10.2881 18.7102L10.2796 18.7039L10.043 19.0265ZM7.58331 13.8931L7.18331 13.8806V13.8931H7.58331ZM16.1389 23.6251H16.5389V23.2251H16.1389V23.6251ZM11.8611 23.6251V23.2251H11.4611V23.6251H11.8611ZM20.7375 7.2626L20.4547 7.54544L20.4547 7.54545L20.7375 7.2626ZM20.7375 6.51399L20.4547 6.23115L20.4547 6.23115L20.7375 6.51399ZM22.2347 5.01677L22.5176 5.29962L22.5176 5.29961L22.2347 5.01677ZM22.9833 5.01677L22.7005 5.29961L22.7005 5.29962L22.9833 5.01677ZM22.9833 5.76538L23.2662 6.04823L23.2662 6.04822L22.9833 5.76538ZM21.4861 7.2626L21.665 7.62037L21.7231 7.59134L21.769 7.54544L21.4861 7.2626ZM6.40691 7.26256L6.11431 7.53565L6.12406 7.5454L6.40691 7.26256ZM7.15552 7.15561L6.87268 6.87277L6.87268 6.87277L7.15552 7.15561ZM7.15552 6.407L7.43836 6.12416L7.43836 6.12416L7.15552 6.407ZM5.6583 4.90978L5.94114 4.62694L5.94114 4.62694L5.6583 4.90978ZM4.90968 4.90978L4.62684 4.62694L4.62684 4.62694L4.90968 4.90978ZM4.90968 5.65839L5.20228 5.3853L5.19253 5.37555L4.90968 5.65839ZM14 3.97508C13.9305 3.97508 13.9037 3.95366 13.8952 3.94519C13.8867 3.93673 13.8653 3.90988 13.8653 3.84036H13.0653C13.0653 4.09167 13.1508 4.33219 13.3295 4.51087C13.5082 4.68956 13.7487 4.77508 14 4.77508V3.97508ZM14.1347 3.84036C14.1347 3.90988 14.1133 3.93673 14.1048 3.94519C14.0964 3.95366 14.0695 3.97508 14 3.97508V4.77508C14.2513 4.77508 14.4918 4.68956 14.6705 4.51087C14.8492 4.33219 14.9347 4.09167 14.9347 3.84036H14.1347ZM14.1347 1.70147V3.84036H14.9347V1.70147H14.1347ZM14 1.56675C14.0695 1.56675 14.0964 1.58817 14.1048 1.59664C14.1133 1.6051 14.1347 1.63195 14.1347 1.70147H14.9347C14.9347 1.45016 14.8492 1.20964 14.6705 1.03096C14.4918 0.852267 14.2513 0.766748 14 0.766748V1.56675ZM13.8653 1.70147C13.8653 1.63195 13.8867 1.6051 13.8952 1.59664C13.9037 1.58817 13.9305 1.56675 14 1.56675V0.766748C13.7487 0.766748 13.5082 0.852267 13.3295 1.03096C13.1508 1.20964 13.0653 1.45016 13.0653 1.70147H13.8653ZM13.8653 3.84036V1.70147H13.0653V3.84036H13.8653ZM12.3958 27.2334H15.6041V26.4334H12.3958V27.2334ZM10.3916 24.9084C10.3916 26.3965 11.4104 27.2334 12.3958 27.2334V26.4334C11.884 26.4334 11.1916 25.9871 11.1916 24.9084H10.3916ZM10.3916 22.6626V24.9084H11.1916V22.6626H10.3916ZM9.13796 20.1831C9.92948 20.8756 10.3916 21.7356 10.3916 22.6626H11.1916C11.1916 21.4507 10.5844 20.3857 9.66477 19.581L9.13796 20.1831ZM6.11387 13.8931C6.11387 16.3618 7.12757 18.6203 9.15579 20.1978L9.64694 19.5663C7.82516 18.1494 6.91387 16.13 6.91387 13.8931H6.11387ZM13.8822 6.11413C9.71669 6.22671 6.22665 9.60224 6.114 13.8826L6.91373 13.9037C7.01497 10.0563 10.1555 7.01514 13.9038 6.91384L13.8822 6.11413ZM19.5231 8.37003C18.0519 6.89883 16.0224 6.11398 13.893 6.11398V6.91398C15.8275 6.91398 17.6481 7.62636 18.9574 8.93571L19.5231 8.37003ZM21.8861 14.0001C21.8861 11.8561 20.9841 9.83101 19.5231 8.37003L18.9574 8.93571C20.277 10.2553 21.0861 12.0802 21.0861 14.0001H21.8861ZM18.9485 20.0928C20.8735 18.6208 21.8861 16.3601 21.8861 14.0001H21.0861C21.0861 16.1317 20.1737 18.1489 18.4626 19.4573L18.9485 20.0928ZM17.6083 22.7695C17.6083 21.8226 18.0868 20.7631 18.9511 20.0908L18.46 19.4594C17.3993 20.2843 16.8083 21.5776 16.8083 22.7695H17.6083ZM17.6083 23.0846V22.7695H16.8083V23.0846H17.6083ZM17.6083 23.0888L17.6083 23.083L16.8083 23.0862L16.8083 23.0919L17.6083 23.0888ZM17.6083 23.0977L17.6083 23.0919L16.8083 23.0888L16.8083 23.0945L17.6083 23.0977ZM17.6083 25.2293V23.0961H16.8083V25.2293H17.6083ZM15.6041 27.2334C16.6806 27.2334 17.6083 26.3057 17.6083 25.2293H16.8083C16.8083 25.8639 16.2388 26.4334 15.6041 26.4334V27.2334ZM16.5441 22.5772C16.6094 21.3702 17.2809 20.077 18.3172 19.2291L17.8106 18.61C16.6143 19.5887 15.8236 21.085 15.7453 22.534L16.5441 22.5772ZM11.8598 22.9556H16.1447V22.1556H11.8598V22.9556ZM9.78974 19.3361C10.8553 20.2079 11.4309 21.3446 11.4599 22.5651L12.2597 22.5461C12.2246 21.0685 11.5231 19.7206 10.2963 18.7169L9.78974 19.3361ZM7.18331 13.8931C7.18331 16.0341 8.08558 18.087 9.80649 19.349L10.2796 18.7039C8.79216 17.6131 7.98331 15.8161 7.98331 13.8931H7.18331ZM14 7.18343C10.3544 7.18343 7.29697 10.2498 7.18351 13.8807L7.98311 13.9056C8.08354 10.692 10.8011 7.98343 14 7.98343V7.18343ZM18.7745 9.11864C17.5194 7.86353 15.8118 7.18343 14 7.18343V7.98343C15.6104 7.98343 17.1111 8.58665 18.2088 9.68432L18.7745 9.11864ZM20.8166 14.0001C20.8166 12.1831 20.133 10.4771 18.7745 9.11864L18.2088 9.68432C19.417 10.8925 20.0166 12.3949 20.0166 14.0001H20.8166ZM18.311 19.2341C19.9084 17.9789 20.8166 16.0431 20.8166 14.0001H20.0166C20.0166 15.8071 19.2137 17.5074 17.8167 18.605L18.311 19.2341ZM16.1389 23.2251H11.8611V24.0251H16.1389V23.2251ZM16.5389 25.2293V23.6251H15.7389V25.2293H16.5389ZM15.6041 26.164C15.8555 26.164 16.096 26.0785 16.2747 25.8998C16.4533 25.7211 16.5389 25.4806 16.5389 25.2293H15.7389C15.7389 25.2988 15.7174 25.3256 15.709 25.3341C15.7005 25.3426 15.6737 25.364 15.6041 25.364V26.164ZM12.3958 26.164H15.6041V25.364H12.3958V26.164ZM11.4611 24.9084C11.4611 25.0086 11.4579 25.2895 11.5512 25.5509C11.5997 25.6868 11.6827 25.8428 11.8286 25.966C11.9815 26.0951 12.1752 26.164 12.3958 26.164V25.364C12.3694 25.364 12.3562 25.3601 12.3518 25.3586C12.3478 25.3572 12.3462 25.356 12.3447 25.3548C12.3402 25.351 12.323 25.3332 12.3046 25.2819C12.2643 25.169 12.2611 25.0221 12.2611 24.9084H11.4611ZM11.4611 23.6251V24.9084H12.2611V23.6251H11.4611ZM20.4547 7.54545C20.5968 7.68759 20.7777 7.73274 20.8856 7.75074C21.0028 7.77026 21.1141 7.76955 21.1653 7.76955V6.96955C21.1095 6.96955 21.0604 6.96883 21.0172 6.96162C20.9969 6.95824 20.9874 6.95481 20.9859 6.95421C20.9844 6.95359 21.0002 6.95959 21.0204 6.97976L20.4547 7.54545ZM20.4547 6.23115C20.0846 6.60125 20.0846 7.17535 20.4547 7.54544L21.0204 6.97976C20.986 6.94544 20.9771 6.91255 20.9771 6.8883C20.9771 6.86404 20.986 6.83116 21.0204 6.79683L20.4547 6.23115ZM21.9519 4.73393L20.4547 6.23115L21.0204 6.79683L22.5176 5.29962L21.9519 4.73393ZM23.2662 4.73393C22.8961 4.36383 22.322 4.36383 21.9519 4.73393L22.5176 5.29961C22.5519 5.26529 22.5848 5.25636 22.609 5.25636C22.6333 5.25636 22.6662 5.26529 22.7005 5.29961L23.2662 4.73393ZM23.2662 6.04822C23.6363 5.67813 23.6363 5.10403 23.2662 4.73393L22.7005 5.29962C22.7348 5.33394 22.7438 5.36682 22.7438 5.39108C22.7438 5.41533 22.7348 5.44822 22.7005 5.48254L23.2662 6.04822ZM21.769 7.54544L23.2662 6.04823L22.7005 5.48254L21.2033 6.97976L21.769 7.54544ZM21.1653 7.76955C21.2479 7.76955 21.3237 7.75079 21.3704 7.73745C21.4232 7.72236 21.4737 7.70374 21.5144 7.68746C21.5559 7.67085 21.5926 7.65454 21.6187 7.6425C21.6319 7.6364 21.6427 7.63123 21.6506 7.62742C21.6546 7.62551 21.6578 7.62393 21.6602 7.62274C21.6614 7.62215 21.6624 7.62165 21.6632 7.62125C21.6636 7.62105 21.664 7.62088 21.6643 7.62073C21.6644 7.62066 21.6646 7.62059 21.6647 7.62053C21.6648 7.6205 21.6648 7.62047 21.6649 7.62045C21.6649 7.62043 21.6649 7.62042 21.6649 7.62041C21.665 7.62039 21.665 7.62037 21.4861 7.2626C21.3072 6.90483 21.3073 6.90481 21.3073 6.9048C21.3073 6.90479 21.3074 6.90478 21.3074 6.90477C21.3074 6.90475 21.3074 6.90473 21.3075 6.90471C21.3076 6.90468 21.3076 6.90465 21.3077 6.90463C21.3077 6.90458 21.3078 6.90456 21.3078 6.90457C21.3078 6.90457 21.3076 6.90468 21.3072 6.90486C21.3064 6.90524 21.3049 6.90596 21.3028 6.90698C21.2986 6.90902 21.2919 6.9122 21.2834 6.91613C21.2661 6.92413 21.2426 6.93456 21.2173 6.94468C21.1911 6.95514 21.168 6.96326 21.1507 6.96823C21.1272 6.97494 21.1361 6.96955 21.1653 6.96955V7.76955ZM6.83468 6.9695C6.77891 6.9695 6.72983 6.96879 6.68656 6.96158C6.66628 6.9582 6.65676 6.95477 6.65528 6.95417C6.65377 6.95355 6.66958 6.95955 6.68975 6.97971L6.12406 7.5454C6.26621 7.68755 6.44708 7.7327 6.55504 7.75069C6.67218 7.77022 6.78352 7.7695 6.83468 7.7695V6.9695ZM6.87268 6.87277C6.84507 6.90037 6.82294 6.92245 6.80173 6.94234C6.78067 6.96208 6.76571 6.9747 6.7551 6.98266C6.74405 6.99095 6.74433 6.98914 6.75457 6.98466C6.76571 6.97978 6.7939 6.9695 6.83468 6.9695V7.7695C7.01868 7.7695 7.15865 7.68 7.2351 7.62266C7.31576 7.56217 7.39012 7.4867 7.43836 7.43846L6.87268 6.87277ZM6.87268 6.68985C6.907 6.72417 6.91593 6.75705 6.91593 6.78131C6.91593 6.80556 6.907 6.83845 6.87268 6.87277L7.43836 7.43846C7.80846 7.06836 7.80846 6.49426 7.43836 6.12416L6.87268 6.68985ZM5.37545 5.19263L6.87268 6.68985L7.43836 6.12416L5.94114 4.62694L5.37545 5.19263ZM5.19253 5.19263C5.22685 5.1583 5.25973 5.14937 5.28399 5.14937C5.30825 5.14937 5.34113 5.1583 5.37545 5.19263L5.94114 4.62694C5.57104 4.25684 4.99694 4.25684 4.62684 4.62694L5.19253 5.19263ZM5.19253 5.37555C5.1582 5.34123 5.14927 5.30834 5.14927 5.28409C5.14927 5.25983 5.1582 5.22695 5.19253 5.19263L4.62684 4.62694C4.25674 4.99704 4.25674 5.57114 4.62684 5.94124L5.19253 5.37555ZM6.69933 6.98963L5.20211 5.38547L4.61726 5.93132L6.11448 7.53548L6.69933 6.98963Z" 
        fill="#FFFFFF" />
</svg>
