<svg width="24" 
    height="24" 
    viewBox="0 0 24 24" 
    fill="none" 
    xmlns="http://www.w3.org/2000/svg">
    <path fill-rule="evenodd" 
        clip-rule="evenodd" 
        d="M14.26 6.67755C14.26 5.38132 13.1677 4.32728 11.8249 4.32728C10.4831 4.32728 9.38974 5.38132 9.38974 6.67755C9.38974 7.97277 10.4831 9.02749 11.8249 9.02749C13.1677 9.02749 14.26 7.97277 14.26 6.67755ZM17.7063 6.67748C17.7063 9.80733 15.0692 12.3533 11.825 12.3533C8.58156 12.3533 5.94372 9.80733 5.94372 6.67748C5.94372 3.54661 8.58156 1 11.825 1C15.0692 1 17.7063 3.54661 17.7063 6.67748ZM17.6349 15.6217C16.5714 16.2664 15.4168 16.7236 14.2197 16.9869L17.5075 20.1609C18.181 20.8097 18.181 21.8634 17.5075 22.5129C16.8346 23.1624 15.7441 23.1624 15.072 22.5129L11.8394 19.3939L8.60969 22.5129C8.27292 22.8373 7.83164 22.9997 7.39036 22.9997C6.94978 22.9997 6.5092 22.8373 6.17244 22.5129C5.4996 21.8634 5.4996 20.8104 6.17173 20.1609L9.45988 16.9869C8.26272 16.7236 7.10814 16.2658 6.0447 15.6217C5.2399 15.1319 4.99815 14.1057 5.50523 13.3282C6.01091 12.5496 7.07435 12.3152 7.88056 12.8051C10.2883 14.2671 13.3899 14.2674 15.799 12.8051C16.6052 12.3152 17.6683 12.5496 18.175 13.3282C18.6821 14.105 18.4397 15.1319 17.6349 15.6217Z" 
        fill="#F68634"/>
</svg>
