<svg width="82" height="82" viewBox="0 0 82 82" fill="none" xmlns="http://www.w3.org/2000/svg">
<rect width="82" height="82" rx="41" fill="url(#paint0_linear)" fill-opacity="0.4"/>
<mask id="mask0" mask-type="alpha" maskUnits="userSpaceOnUse" x="0" y="0" width="82" height="82">
<rect width="82" height="82" rx="41" fill="white"/>
</mask>
<g mask="url(#mask0)">
<g clip-path="url(#clip0)">
<path d="M30.6843 31.5878L31.1822 29.2997C31.1822 29.2997 32.8242 30.3378 33.7881 31.8315C34.7521 33.3251 35.2076 37.2976 35.4725 37.4459C35.7479 37.5942 38.7775 32.9226 39.3072 32.1811C39.964 31.27 40.2076 30.2213 40.6208 29.4268C41.0339 28.6323 42.4746 28.3569 43.0254 28.4628C43.5763 28.5582 42.2733 30.8887 42.2733 30.8887C42.2733 30.8887 38.9894 36.5984 37.8877 39.7234C36.7966 42.8484 33.3644 44.3421 32.8242 43.8972C32.2733 43.4522 30.6843 31.5878 30.6843 31.5878Z" fill="#F48C7F"/>
<path d="M40.6631 29.8716C40.6631 29.8716 40.8008 29.2678 41.1716 29.1513C41.5423 29.0242 42.1779 29.1407 42.2203 29.1513C42.2627 29.1619 42.9724 28.7805 42.9724 28.7805L42.3898 29.8716C42.3898 29.8716 41.2457 31.2276 40.8643 30.7191C40.4724 30.2106 40.6631 29.8716 40.6631 29.8716Z" fill="#F7A491"/>
<path d="M43.1737 28.8226C43.1737 28.8226 43.5869 30.9306 43.4809 31.3755C43.375 31.8204 43.1102 31.5768 43.0572 31.4815C42.8559 31.0895 42.7076 29.7336 42.7076 29.7336L43.1737 28.8226Z" fill="#F48C7F"/>
<path d="M42.2839 30.5814C42.2839 30.5814 42.4852 31.8844 42.6865 32.0433C42.8136 32.1386 42.9831 32.0856 43.0466 31.8208C43.0996 31.556 42.7818 29.9458 42.7818 29.9458L42.2839 30.5814Z" fill="#F48C7F"/>
<path d="M41.0763 34.2888L40.3877 33.9499L43.3114 27.9541C43.6928 28.1342 43.8517 28.6003 43.661 28.9816L41.0763 34.2888Z" fill="#184655"/>
<path d="M33.7352 22.1913C34.1483 20.3163 34.5508 18.4307 33.4597 16.365C32.5805 14.7019 31.0551 13.7379 29.2966 13.526C24.3072 12.9328 25.3771 17.5938 18.4068 18.6002C16.2457 18.918 14.233 19.2146 12.4216 20.2951C9.15888 22.2443 7.91947 25.3587 10.0911 30.4434C15.3983 42.8904 28.4174 32.329 30.0169 29.8714C31.214 28.0599 33.4597 23.3989 33.7352 22.1913Z" fill="#13375B"/>
<path d="M34.286 53.9287C34.286 53.9287 35.3242 59.8397 34.6462 63.7062C33.9576 67.5833 30.6737 103.484 30.6737 103.484L27.0191 103.685C27.0191 103.685 26.2564 88.685 26.3941 86.5981C26.5318 84.5113 27.6123 81.0261 27.6123 81.0261L27.2521 68.9181L31.8602 53.007L34.286 53.9287Z" fill="#4AC69B"/>
<path d="M23.5551 52.6889C23.5551 52.6889 20.6737 57.0109 19.9958 60.5809C19.3072 64.1614 20.4937 75.1465 19.1801 79.8287C18.4704 82.3605 15.7691 86.28 15.3559 89.5639C14.9428 92.8372 13.3326 101.428 13.3326 101.428L16.9873 102.149L25.4725 80.708L32.125 61.333L33.8305 51.3542L23.5551 52.6889Z" fill="#57E1B1"/>
<path d="M25.875 28.113C25.875 28.113 23.3538 28.399 21.8496 30.041C20.3454 31.6829 24.286 44.8503 24.5615 46.9372C24.8369 49.024 22.3157 53.8863 22.3157 53.8863C22.3157 53.8863 31.7225 55.6236 34.2861 53.9393C34.2861 53.9393 34.5615 38.9393 34.2861 37.4562C34.0106 35.9626 31.7331 29.9033 31.1822 29.31C30.6314 28.7062 25.875 28.113 25.875 28.113Z" fill="#F54554"/>
<path d="M22.3157 31.2693C22.5593 30.5383 23.3856 30.1782 24.0953 30.4854C25.0699 30.9091 26.4152 31.7036 27.0614 33.0701C28.1525 35.3583 31.9873 43.1972 33.1843 43.4938C34.3707 43.7905 39.2119 35.3477 39.2119 35.3477C39.2119 35.3477 39.0741 33.854 39.4873 33.0172C39.9004 32.1697 41.1292 31.2799 41.3093 31.5765C41.4894 31.8731 40.6208 32.6146 40.6208 32.7735C40.6208 32.9218 40.9809 33.0172 41.4894 32.7205C41.9873 32.4239 42.2627 31.8201 42.2627 31.8201C42.2627 31.8201 43.089 33.3138 42.2203 34.6591C41.3517 36.0044 40.9915 36.5447 40.9915 36.5447C40.9915 36.5447 35.3771 49.0129 33.322 49.1612C31.4152 49.2989 20.3983 37.085 22.3157 31.2693Z" fill="#F7A491"/>
<path d="M27.1461 23.0281C27.1461 23.0281 27.1249 23.1446 27.0932 23.3353C26.9237 24.2463 26.2669 27.276 25.8326 28.1128C25.3029 29.1192 27.6546 32.3289 29.9321 31.937C30.6101 31.8204 29.3601 28.9815 29.4237 28.6849C29.5402 28.1128 29.6991 27.3289 29.858 26.5238C29.9427 26.0683 30.0381 25.6128 30.1228 25.1785C30.3665 23.9497 30.5677 22.9433 30.5677 22.9433L27.1461 23.0281Z" fill="#F7A491"/>
<path d="M27.0932 23.3353C27.125 23.1446 27.1462 23.0281 27.1462 23.0281L30.5466 22.9433C30.5466 22.9433 30.3454 23.9497 30.1017 25.1785C30.017 25.6128 29.9216 26.0683 29.8369 26.5133C29.3072 26.4391 28.767 26.1849 28.2161 25.6976C27.6123 25.1679 27.2204 24.5429 26.9873 23.8649C27.0297 23.6637 27.0615 23.473 27.0932 23.3353Z" fill="#F47458"/>
<path d="M29.1907 14.9353C29.1907 14.9353 27.803 15.1259 26.7966 16.4289C25.7903 17.7319 24.7098 21.7467 27.2098 23.9289C29.7098 26.1111 32.178 23.6429 32.5487 21.0158C32.9089 18.3992 32.8348 14.8399 29.1907 14.9353Z" fill="#F7A491"/>
<path d="M33.3432 20.1256C33.0466 20.7083 32.5487 21.026 32.2203 20.846C31.9025 20.6659 31.8814 20.0409 32.178 19.4688C32.4746 18.8862 32.9725 18.5684 33.3009 18.7485C33.6292 18.9286 33.6398 19.543 33.3432 20.1256Z" fill="#F7A491"/>
<path d="M29.6144 14.871C29.6144 14.871 27.4746 18.6951 25.9386 18.8646C24.4026 19.0447 24.2013 21.068 24.2013 21.068C24.2013 21.068 24.7521 16.3964 26.267 15.496C27.7924 14.5955 29.6144 14.871 29.6144 14.871Z" fill="#13375B"/>
<path d="M26.447 19.7867C26.5741 20.4646 26.3199 21.0896 25.8855 21.1744C25.4512 21.2591 24.9957 20.7824 24.8686 20.1045C24.7415 19.4265 24.9957 18.8015 25.43 18.7167C25.8643 18.6214 26.3199 19.1087 26.447 19.7867Z" fill="#F7A491"/>
</g>
<g clip-path="url(#clip1)">
<path d="M41.5 57.3602C43.036 56.9153 43.0784 57.1907 43.2797 57.1271C43.5127 57.053 45.3771 54.5318 45.3771 54.5318C45.3771 54.5318 50.928 47.1377 51.2034 46.7246L52.9513 37.1483L58.2055 37.1059C58.2055 37.1059 56.0127 47.4449 55.7903 47.9534C55.5784 48.4619 46.786 57.4979 46.0445 58.3241C46.0445 58.3241 45.5678 59.6589 45.2288 60.4852C44.9004 61.3114 44.1907 61.9153 44.053 62.1271C44.0318 62.1589 43.5445 62.8475 42.697 63.5148C41.9661 64.0869 42.358 63.197 42.358 63.197C42.358 63.197 43.4915 61.8729 43.3538 61.7987C43.2479 61.7352 42.6864 62.4979 41.8814 63.1441C41.6801 63.3136 41.4682 63.4725 41.2881 63.6208C40.7903 64.0127 40.3771 63.8008 40.822 63.3136C40.9809 63.1441 41.2458 62.858 41.4682 62.678C41.7119 62.4873 41.8602 62.233 42.0297 62.053C42.3792 61.6716 42.6335 61.4068 42.6123 61.3962C42.5805 61.3856 42.5911 61.2585 42.3686 61.428C42.1038 61.6292 41.6377 62.2013 41.214 62.4661C40.9703 62.6144 40.4936 62.964 40.4936 62.964C40.4936 62.964 39.6568 63.3453 39.6144 63.303C39.3708 63.0699 39.858 62.6462 40.2076 62.4873C40.3665 62.2648 40.8856 61.9153 40.8856 61.9153C40.8856 61.9153 41.7436 60.9619 41.5953 60.8241C41.5318 60.7712 40.928 61.2902 40.2394 61.6928C39.6038 62.0741 38.8835 62.3496 38.7775 62.233C38.5975 62.0318 39.2436 61.5339 39.2436 61.5339C39.2436 61.5339 39.7203 61.2055 39.8686 61.089C40.0381 60.9513 40.5254 60.4852 40.5254 60.4852C40.5254 60.4852 42.125 58.7797 41.9767 58.6631C41.8284 58.5466 41.3305 58.3877 41.1822 58.4619C41.0445 58.5254 40.8644 58.7902 40.7267 58.8644C40.589 58.928 40.3347 58.8962 40.2076 58.7267C40.0911 58.5572 40.6102 57.964 40.6102 57.964C40.6102 57.964 41.0551 57.4873 41.5 57.3602Z" fill="#F48C7F"/>
<path d="M54.1695 58.0275L51.4788 59.1928L45.8114 86.2479L46.0445 106.534L50.5889 106.64C50.5889 106.64 52.697 88.8962 52.697 87.5191C52.697 86.1419 62.4745 63.4513 62.4745 63.4513L54.1695 58.0275Z" fill="#2A4280"/>
<path d="M56.2457 59.5106C56.2457 59.5106 58.2267 80.358 58.2267 83.875C58.2267 87.3919 59.8368 107.063 59.8368 107.063L64.3919 107.042C64.3919 107.042 64.7203 101.047 65.2076 92.2224C65.2817 90.8453 65.1122 88.0487 65.2076 86.6186C65.9173 76.3326 67.3156 66.6504 66.6483 62.8051C66.5423 62.1906 66.3411 60.5699 65.9491 60.1673C62.9618 57.0847 56.2457 59.5106 56.2457 59.5106Z" fill="#2950B3"/>
<path d="M50.6949 43.059L56.2034 42.6882C56.2034 42.6882 56.4788 37.7624 56.4788 35.4107C56.4788 32.5611 57.3475 28.3556 57.0085 28.4403C56.0551 28.6628 54.4132 29.542 53.6505 30.6014C50.9916 34.2878 50.6949 43.059 50.6949 43.059Z" fill="#2950B3"/>
<path d="M63.7458 28.3349C63.7458 28.3349 66.8919 28.7692 67.7182 29.3836C68.6504 30.0722 69.6886 31.5976 69.6886 31.5976C69.6886 31.5976 65.822 49.8285 65.8114 52.89C65.8008 55.2629 66.6483 61.0891 66.6483 61.0891C66.6483 61.0891 54.9852 61.8201 50.5784 60.0828C50.5784 60.0828 51.9767 53.1548 51.9767 51.3328C51.9767 49.5107 53.6398 32.9535 54.0212 31.7989C54.3707 30.7501 54.9957 28.8646 57.125 28.3985C59.2542 27.9429 63.7458 28.3349 63.7458 28.3349Z" fill="#5786FF"/>
<path d="M62.8876 23.4196L63.6609 28.5149C63.6609 28.5149 60.822 34.5742 59.127 34.0552C57.7076 33.6103 58.5762 28.2501 58.5762 28.2501C58.5762 28.2501 59.3495 25.3687 59.1165 23.9281C58.894 22.4768 62.8876 23.4196 62.8876 23.4196Z" fill="#F7A491"/>
<path d="M59.1271 23.9178C58.894 22.4772 62.8876 23.42 62.8876 23.42L62.9512 23.8437C62.8347 24.1297 62.6864 24.3628 62.5169 24.5534C61.6271 25.5068 60.2287 26.0789 59.0211 26.1212C59.1482 25.3479 59.2224 24.5111 59.1271 23.9178Z" fill="#F47458"/>
<path d="M63.5445 16.2161C63.661 16.1737 64.4449 22.0212 62.9512 23.6207C61.447 25.2309 58.5233 25.75 57.464 24.4894C56.2987 23.0911 56.3623 16.8093 58.6928 15.1568C61.0339 13.5042 63.5445 16.2161 63.5445 16.2161Z" fill="#F7A491"/>
<path d="M59.5827 12.0318C61.3941 12.4026 62.5594 13.4937 62.9937 13.9598C63.8093 14.0551 64.9322 14.5106 66.0763 16.3962C67.4958 18.7267 66.4471 21.3009 64.7945 22.5721C63.142 23.8327 63.1632 25.3051 63.1632 25.3051L62.9089 24.5424C62.7183 23.9704 62.6335 23.3666 62.7077 22.7627C62.75 22.4026 62.8242 22.0106 62.9725 21.6928C63.3644 20.8454 62.125 20.2839 61.7755 19.5848C61.5106 19.0445 61.4894 17.8051 61.0657 16.9047L60.5572 16.2161C60.5572 16.2161 59.392 15.3157 58.2479 15.5699C57.1039 15.8348 57.2733 11.5657 59.5827 12.0318Z" fill="#13375B"/>
<path d="M61.8496 20.6337C61.839 21.3434 62.1674 21.926 62.5805 21.9366C62.9937 21.9472 63.3433 21.3752 63.3539 20.6548C63.3645 19.9451 63.0361 19.3625 62.6229 19.3519C62.2098 19.3413 61.8602 19.9133 61.8496 20.6337Z" fill="#F7A491"/>
<path d="M55.7373 46.8835L55.6632 47.3178C55.6208 47.5403 55.4089 47.6886 55.1865 47.6568L46.1716 46.0996C45.9492 46.0572 45.8009 45.8453 45.8327 45.6229L45.9068 45.1886C45.9492 44.9661 46.161 44.8178 46.3835 44.8496L55.3983 46.4068C55.6208 46.4492 55.7691 46.661 55.7373 46.8835Z" fill="#13375B"/>
<path d="M68.5127 30.676C67.4533 30.6442 66.5211 37.6145 67.1885 38.3031C67.8559 38.9917 67.983 47.5828 67.983 47.5828L58.0042 47.3391C57.8135 47.212 55.7161 45.8031 55.4194 45.4959C55.1016 45.1781 53.5868 45.337 53.1843 45.7819C52.7817 46.2268 54.0847 45.8667 54.4343 46.0997C54.7944 46.3434 54.1694 46.9472 54.1694 46.9472C54.1694 46.9472 51.6377 47.3179 51.1504 46.7883C50.6525 46.2692 49.3389 45.3794 49.1589 45.8984C49.0635 46.1633 49.7415 46.9895 50.1228 47.3285C49.6461 46.9684 49.0741 46.587 48.8728 46.6612C48.5127 46.7777 48.661 47.2332 48.8622 47.3709C49.0529 47.5086 51.0656 49.034 51.3728 49.14C51.68 49.2459 56.3411 49.3624 57.1567 49.5425C57.1567 49.5425 70.3135 52.5404 71.055 52.3497C71.7118 52.1908 72.3686 47.9747 72.3686 44.7544C72.3792 41.534 71.8071 30.7713 68.5127 30.676Z" fill="#F7A491"/>
<path d="M67.1356 29.087C67.1356 29.087 68.9789 29.5108 70.875 31.6506C72.6017 33.5892 73.6928 44.4684 73.6928 44.4684L67.7289 45.4324L67.2522 40.1676L65.6526 37.7629L67.1356 29.087Z" fill="#5786FF"/>
</g>
</g>
<defs>
<linearGradient id="paint0_linear" x1="0" y1="0" x2="89.229" y2="8.81364" gradientUnits="userSpaceOnUse">
<stop stop-color="#5081FF" stop-opacity="0.4"/>
<stop offset="1" stop-color="#5081FF" stop-opacity="0.4"/>
</linearGradient>
<clipPath id="clip0">
<rect width="34.7352" height="97.0657" fill="white" transform="translate(9 13.4834)"/>
</clipPath>
<clipPath id="clip1">
<rect width="34.947" height="100" fill="white" transform="translate(38.7457 12)"/>
</clipPath>
</defs>
</svg>
