<svg width="82" height="82" viewBox="0 0 82 82" fill="none" xmlns="http://www.w3.org/2000/svg">
<rect width="82" height="82" rx="41" fill="url(#paint0_linear)" fill-opacity="0.4"/>
<mask id="mask0" mask-type="alpha" maskUnits="userSpaceOnUse" x="0" y="0" width="82" height="82">
<rect width="82" height="82" rx="41" fill="white"/>
</mask>
<g mask="url(#mask0)">
<path d="M41.2776 65.0414H39.2119V60.0612H32.7602C29.2514 60.0612 26.4218 57.4579 26.4218 54.232V45.4317C26.4218 40.0553 31.1756 35.6693 37.0614 35.6693H38.8724C44.7298 35.6693 49.4837 40.0553 49.4837 45.4317V56.8353C49.4837 61.3628 45.8051 65.0414 41.2776 65.0414Z" fill="#F7A491"/>
<path d="M52.4832 59.6933C43.796 55.1941 34.4581 52.0814 24.8088 50.4685C25.7992 44.5262 26.252 40.1685 27.2424 34.2261C38.7592 36.1503 49.9082 39.8572 60.2648 45.2336C57.4917 50.5817 55.2563 54.3452 52.4832 59.6933Z" fill="#5685FF"/>
<path d="M32.4774 44.9966C36.0696 42.9358 37.3111 38.3532 35.2504 34.7609C33.1896 31.1687 28.607 29.9271 25.0147 31.9879C21.4225 34.0487 20.181 38.6313 22.2417 42.2236C24.3025 45.8158 28.8851 47.0573 32.4774 44.9966Z" fill="#2950B3"/>
<path d="M21.794 57.1664C23.4238 54.4084 22.5091 50.8513 19.751 49.2216C16.9929 47.5919 13.4359 48.5066 11.8061 51.2647C10.1764 54.0227 11.0911 57.5798 13.8492 59.2095C16.6073 60.8392 20.1643 59.9245 21.794 57.1664Z" fill="#2950B3"/>
<path d="M34.1751 43.6205L21.0454 58.1651L11.8489 51.1758L22.3187 34.6221L34.1751 43.6205Z" fill="#2950B3"/>
<path d="M14.339 47.2424L13.8579 48.0064C13.8579 48.0064 20.9038 48.0913 24.8654 53.9771L25.4596 53.2697C21.4698 47.3273 14.339 47.2424 14.339 47.2424Z" fill="#5584FF"/>
<path d="M63.9637 48.635C64.4573 44.523 61.5241 40.7894 57.4121 40.2957C53.3001 39.8021 49.5665 42.7353 49.0728 46.8473C48.5791 50.9593 51.5124 54.6929 55.6244 55.1866C59.7364 55.6802 63.47 52.747 63.9637 48.635Z" fill="#2950B3"/>
<path d="M60.7534 71.5407C62.9944 69.2513 62.9552 65.5787 60.6658 63.3377C58.3765 61.0967 54.7039 61.1359 52.4628 63.4253C50.2218 65.7147 50.2611 69.3873 52.5504 71.6283C54.8398 73.8693 58.5124 73.8301 60.7534 71.5407Z" fill="#2950B3"/>
<path d="M49.0874 48.601L50.8418 68.0975L62.4152 68.0409L63.9715 48.5161L49.0874 48.601Z" fill="#2950B3"/>
<path d="M62.7831 63.4003L62.6982 64.3058C62.6982 64.3058 57.0105 60.1461 50.3042 62.4665L50.2476 61.561C57.0105 59.1841 62.7831 63.4003 62.7831 63.4003Z" fill="#5584FF"/>
<path d="M34.9694 40.1874C35.9108 36.7507 33.888 33.2016 30.4513 32.2602C27.0146 31.3188 23.4655 33.3417 22.5241 36.7783C21.5827 40.215 23.6056 43.7641 27.0422 44.7055C30.4789 45.6469 34.028 43.6241 34.9694 40.1874Z" fill="#2950B3"/>
<path d="M26.9594 43.8185C24.0165 42.8282 22.4319 39.6589 23.4223 36.716C24.4127 33.7732 27.5819 32.1885 30.5248 33.1789C33.4677 34.1693 35.0523 37.3386 34.0619 40.2814C33.0715 43.196 29.9023 44.7806 26.9594 43.8185Z" fill="#5584FF"/>
<path d="M32.2792 38.4424L30.1852 37.735L30.8926 35.641C30.9775 35.3581 30.836 35.0751 30.5531 34.9902L29.3363 34.594C29.0533 34.5092 28.7704 34.6506 28.6855 34.9336L27.9781 37.0276L25.8841 36.3202C25.6011 36.2353 25.3182 36.3767 25.2333 36.6597L24.8654 37.8765C24.7805 38.1595 24.922 38.4424 25.205 38.5273L27.2989 39.2347L26.5915 41.3287C26.5066 41.6117 26.6481 41.8946 26.9311 41.9795L28.1478 42.3757C28.4308 42.4606 28.7138 42.3191 28.7987 42.0361L29.5061 39.9422L31.6001 40.6496C31.883 40.7345 32.166 40.593 32.2509 40.31L32.647 39.0932C32.7036 38.8386 32.5622 38.5556 32.2792 38.4424Z" fill="white"/>
<path d="M27.4687 41.272L28.3176 38.697L25.7426 37.8198L25.9406 37.2255L28.5156 38.0744L29.3928 35.4994L30.0154 35.6975L29.1382 38.2725L31.7132 39.1497L31.5151 39.7439L28.9401 38.895L28.0912 41.47L27.4687 41.272Z" fill="#F54554"/>
<path d="M62.7439 49.4466C63.6853 46.0099 61.6625 42.4608 58.2258 41.5194C54.7892 40.578 51.24 42.6008 50.2986 46.0375C49.3573 49.4742 51.3801 53.0233 54.8168 53.9647C58.2534 54.9061 61.8026 52.8833 62.7439 49.4466Z" fill="#2950B3"/>
<path d="M54.7468 53.0719C51.8039 52.0815 50.2193 48.9123 51.2097 45.9694C52.2001 43.0266 55.3693 41.4419 58.3122 42.4323C61.2551 43.4227 62.8397 46.592 61.8493 49.5348C60.8589 52.4777 57.6896 54.0623 54.7468 53.0719Z" fill="#5584FF"/>
<path d="M58.1291 46.435C58.9971 46.0804 59.4134 45.0893 59.0588 44.2213C58.7043 43.3533 57.7132 42.9371 56.8452 43.2916C55.9772 43.6462 55.561 44.6372 55.9155 45.5052C56.27 46.3732 57.2611 46.7895 58.1291 46.435Z" fill="white"/>
<path d="M57.2087 45.6864C56.756 45.5449 56.5013 45.0356 56.6711 44.5829C56.8126 44.1301 57.3219 43.8754 57.7747 44.0452C58.2274 44.1867 58.4821 44.696 58.3123 45.1488C58.1425 45.6015 57.6615 45.8562 57.2087 45.6864Z" fill="#F54554"/>
<path d="M57.152 51.1762C56.8691 52.0535 55.907 52.5345 55.0015 52.2515C54.1243 51.9686 53.6432 51.0065 53.9262 50.101C54.2092 49.2238 55.1713 48.7427 56.0768 49.0257C56.9823 49.337 57.4633 50.299 57.152 51.1762Z" fill="white"/>
<path d="M55.2845 51.4588C54.8318 51.3173 54.5771 50.808 54.7469 50.3552C54.8884 49.9025 55.3977 49.6478 55.8505 49.8176C56.3032 49.9591 56.5579 50.4684 56.3881 50.9212C56.2183 51.3739 55.7373 51.6003 55.2845 51.4588Z" fill="#F54554"/>
<path d="M58.8782 50.3272C58.001 50.0442 57.5199 49.0822 57.8029 48.1767C58.0859 47.2995 59.048 46.8184 59.9535 47.1014C60.8307 47.3843 61.3117 48.3464 61.0287 49.2519C60.7175 50.1291 59.7554 50.6102 58.8782 50.3272Z" fill="white"/>
<path d="M59.1329 49.5346C58.6802 49.3931 58.4255 48.8838 58.5953 48.431C58.7368 47.9783 59.2461 47.7236 59.6989 47.8934C60.1516 48.0349 60.4063 48.5442 60.2365 48.997C60.0667 49.4497 59.5857 49.6761 59.1329 49.5346Z" fill="#F54554"/>
<path d="M53.1056 48.4028C52.2284 48.1198 51.7474 47.1577 52.0303 46.2522C52.3133 45.375 53.2754 44.894 54.1809 45.1769C55.0581 45.4599 55.5391 46.422 55.2562 47.3275C54.9449 48.2047 53.9828 48.6857 53.1056 48.4028Z" fill="white"/>
<path d="M53.3603 47.6104C52.9076 47.469 52.6529 46.9596 52.8227 46.5069C52.9642 46.0541 53.4735 45.7994 53.9263 45.9692C54.379 46.1107 54.6337 46.6201 54.4639 47.0728C54.2941 47.5256 53.8131 47.7519 53.3603 47.6104Z" fill="#F54554"/>
<path d="M38.1932 51.7984C37.5141 53.8358 35.3352 54.9111 33.2979 54.232C31.2605 53.5528 30.1852 51.374 30.8643 49.3366C31.5435 47.2992 33.7223 46.224 35.7597 46.9031C37.7971 47.5822 38.8723 49.7611 38.1932 51.7984Z" fill="white"/>
<path d="M33.8355 52.6758C32.6753 52.2796 32.0528 51.0345 32.4489 49.8744C32.8451 48.7142 34.0902 48.0917 35.2503 48.4878C36.4105 48.884 37.033 50.129 36.6369 51.2892C36.2407 52.4211 34.9957 53.0436 33.8355 52.6758Z" fill="#F54554"/>
<path d="M48.6347 55.2788C47.9556 57.3162 45.7768 58.3915 43.7394 57.7123C41.702 57.0332 40.6267 54.8543 41.3059 52.817C41.985 50.7796 44.1638 49.7043 46.2012 50.3834C48.2103 51.0626 49.3139 53.2414 48.6347 55.2788Z" fill="white"/>
<path d="M44.277 56.1561C43.1168 55.7599 42.4943 54.5149 42.8905 53.3547C43.2866 52.1945 44.5317 51.572 45.6919 51.9681C46.852 52.3643 47.4746 53.6094 47.0784 54.7695C46.6823 55.9014 45.4089 56.5239 44.277 56.1561Z" fill="#F54554"/>
<path d="M39.0705 41.5549C37.6556 41.1587 36.835 39.6873 37.2312 38.2441L38.5894 33.4337C38.7592 32.8111 39.4101 32.4433 40.0326 32.6414L42.9472 33.462C43.5697 33.6317 43.9376 34.2826 43.7395 34.9051L42.3812 39.7156C41.9851 41.1304 40.4853 41.951 39.0705 41.5549Z" fill="#F7A491"/>
<path d="M35.1655 39.2061C34.0336 39.0081 33.2696 37.9328 33.4677 36.7726L34.1468 32.9242C34.2317 32.4149 34.7127 32.1036 35.1938 32.1885L37.5141 32.5847C38.0235 32.6696 38.3347 33.1506 38.2498 33.6317L37.5707 37.5083C37.3726 38.6402 36.2974 39.4042 35.1655 39.2061Z" fill="#F7A491"/>
<path d="M42.9187 43.083C41.7303 42.2058 41.4473 40.5363 42.3245 39.3479L45.2674 35.3014C45.6352 34.7921 46.371 34.6789 46.8803 35.0467L49.3138 36.8294C49.8232 37.1973 49.9364 37.933 49.5685 38.4424L46.6539 42.4888C45.805 43.6773 44.1355 43.9602 42.9187 43.083Z" fill="#F7A491"/>
<path d="M46.1729 45.7713C45.2957 44.5829 45.5787 42.9134 46.7671 42.0362L50.8136 39.1216C51.3229 38.7537 52.0586 38.8669 52.4265 39.3763L54.1809 41.8098C54.5488 42.3191 54.4356 43.0549 53.9262 43.4227L49.8798 46.3373C48.7196 47.2428 47.0501 46.9598 46.1729 45.7713Z" fill="#F7A491"/>
<path d="M45.4373 91.0755H31.8831L30.8644 59.7782H46.2579L45.4373 91.0755Z" fill="#F7A491"/>
<path d="M36.1841 46.1673C36.0426 48.8555 33.7789 50.8928 31.119 50.7797L27.5818 50.6099C26.8744 50.5816 26.3368 49.9873 26.3651 49.2799L26.5349 45.9975C26.5632 45.2901 27.1574 44.7524 27.8648 44.7807L35.2503 45.1203C35.7879 45.1486 36.2124 45.6296 36.1841 46.1673Z" fill="#F7A491"/>
<path d="M27.8675 44.7808C29.4804 44.8657 30.7254 46.2239 30.6406 47.8369L30.3859 54.9394C30.3576 55.6468 29.7634 56.1844 29.0559 56.1561L25.7735 55.9863C25.0661 55.9581 24.5284 55.3638 24.5567 54.6564L24.8114 47.5539C24.868 45.941 26.2545 44.6959 27.8675 44.7808Z" fill="#F7A491"/>
<path d="M25.6577 52.3076C27.0726 51.0342 28.9968 51.1474 30.5814 51.5435C33.9204 52.3076 36.1559 54.7128 37.5141 56.7785C38.6177 58.4197 38.0234 60.6551 36.269 61.5323L31.5435 63.9093L25.4313 57.1746C24.158 55.7598 24.2429 53.5809 25.6577 52.3076Z" fill="#F7A491"/>
<path d="M45.4372 78.7084L46.088 63.3432C45.324 63.2866 44.6732 63.3149 44.1072 64.3053C43.6262 65.1259 43.4847 66.2295 43.3998 67.2765C43.2017 69.8515 43.1451 76.1051 43.1451 78.7084H45.4372Z" fill="#F7A491"/>
<path d="M26.9768 12.1751L26.4312 14.5156L22.7274 13.9674L21.5293 17.2824L18.6922 17.3377L18.7385 18.8355L22.5332 18.7532L23.6763 15.6106L27.5231 16.2012L28.3581 12.6676L26.9768 12.1751Z" fill="#57E1B1"/>
<path d="M35.4029 23.6504L38.0378 22.0674L38.336 19.0034C38.3601 18.6579 38.7771 18.49 39.031 18.7236L41.2118 20.745L44.1361 19.977C44.4628 19.8927 44.7432 20.2311 44.6023 20.5554L43.3246 23.3788L44.8412 25.9667C45.0144 26.267 44.7767 26.6487 44.4332 26.6112L41.4549 26.3383L39.4492 28.7043C39.2271 28.9826 38.7957 28.8729 38.7356 28.5246L38.1758 25.5357L35.4262 24.4046C35.1308 24.2821 35.1026 23.8395 35.4029 23.6504Z" fill="#FED333"/>
</g>
<path d="M74.9863 46.5023L73.2914 45.4464L74.7145 42.6797L72.4277 40.8495L73.144 38.603L71.9534 38.2383L71.0018 41.2453L73.1678 42.9861L71.6731 45.8539L74.229 47.457L74.9863 46.5023Z" fill="#5785FF"/>
<path d="M60.463 25.3036L60.5064 27.7501C60.5052 28.0143 60.8165 28.1528 61.0225 27.9857L62.9234 26.4326L65.237 27.1001C65.4943 27.1702 65.7128 26.9155 65.6253 26.6768L64.7802 24.4004L66.172 22.3697C66.3158 22.1485 66.1662 21.8556 65.8964 21.8731L63.4766 22.0158L62.022 20.0943C61.8599 19.889 61.5296 19.9478 61.47 20.2168L60.8214 22.5739L58.5273 23.4123C58.2753 23.4966 58.2336 23.8324 58.4643 23.9821L60.463 25.3036Z" fill="#F54554"/>
<defs>
<linearGradient id="paint0_linear" x1="0" y1="0" x2="89.229" y2="8.81364" gradientUnits="userSpaceOnUse">
<stop stop-color="#5081FF" stop-opacity="0.4"/>
<stop offset="1" stop-color="#5081FF" stop-opacity="0.4"/>
</linearGradient>
</defs>
</svg>
