<svg width="82" height="82" viewBox="0 0 82 82" fill="none" xmlns="http://www.w3.org/2000/svg">
<rect width="82" height="82" rx="41" fill="url(#paint0_linear)" fill-opacity="0.4"/>
<mask id="mask0" mask-type="alpha" maskUnits="userSpaceOnUse" x="0" y="0" width="82" height="82">
<rect width="82" height="82" rx="41" fill="white"/>
</mask>
<g mask="url(#mask0)">
<path d="M112.477 44.7443C112.033 41.4441 109.24 38.9055 105.813 38.9055C105.686 38.9055 105.559 38.9055 105.432 38.9055C105.496 38.5882 105.496 38.2709 105.496 37.9535C105.496 33.4475 101.815 29.7666 97.3088 29.7666C92.8028 29.7666 89.1218 33.4475 89.1218 37.9535C89.1218 37.9535 89.1218 37.9535 89.1218 38.017C87.3448 38.4613 85.8216 39.6036 84.9331 41.1902C84.0446 40.8095 83.0927 40.5556 82.0772 40.5556C79.2213 40.5556 76.8096 42.3326 75.8577 44.8077H112.477V44.7443Z" fill="white"/>
<path d="M51.0429 65.1165C50.8525 63.4664 49.4563 62.1971 47.7427 62.1971C47.6793 62.1971 47.6158 62.1971 47.5523 62.1971C47.5523 62.0702 47.5523 61.8798 47.5523 61.6894C47.5523 59.4681 45.7753 57.6277 43.4906 57.6277C41.2693 57.6277 39.4288 59.4047 39.4288 61.6894C38.5403 61.8798 37.7787 62.5144 37.3345 63.276C36.8902 63.0856 36.446 62.9587 35.9383 62.9587C34.542 62.9587 33.3362 63.8472 32.8285 65.053H51.0429V65.1165Z" fill="white"/>
<path d="M33.9708 19.4225C33.6534 17.0743 31.6226 15.2338 29.2109 15.2338C29.1474 15.2338 29.0205 15.2338 28.957 15.2338C28.957 14.98 29.0205 14.7896 29.0205 14.5357C29.0205 11.299 26.4185 8.69696 23.1817 8.69696C19.945 8.69696 17.343 11.299 17.343 14.5357C17.343 14.5357 17.343 14.5357 17.343 14.5992C16.0737 14.9165 14.9948 15.7416 14.3601 16.8839C13.7255 16.5666 13.0274 16.4397 12.3293 16.4397C10.2984 16.4397 8.58483 17.709 7.88672 19.486H33.9708V19.4225Z" fill="white"/>
<path d="M27.0531 24.0545C26.4185 24.0545 25.8473 24.5622 25.8473 25.2604V105.988H28.1955V25.2604C28.1955 24.6257 27.6878 24.0545 27.0531 24.0545Z" fill="#2950B3"/>
<path d="M47.3619 41.7611H28.1956V54.1367H47.3619L50.9794 47.9806L47.3619 41.7611Z" fill="url(#paint1_linear)"/>
<path d="M47.3619 26.7833H28.1956V39.1589H47.3619L50.9794 33.0028L47.3619 26.7833Z" fill="url(#paint2_linear)"/>
<path d="M6.6175 47.6767H25.7839V35.3011H6.6175L3 41.3937L6.6175 47.6767Z" fill="url(#paint3_linear)"/>
<path d="M42.6655 29.8928H32.5745C32.0668 29.8928 31.686 30.2736 31.686 30.7813C31.686 31.289 32.0668 31.6698 32.5745 31.6698H42.6655C43.1732 31.6698 43.554 31.289 43.554 30.7813C43.554 30.337 43.1732 29.8928 42.6655 29.8928Z" fill="white"/>
<path d="M36.5728 34.4629H32.5745C32.0668 34.4629 31.686 34.8437 31.686 35.3514C31.686 35.8591 32.0668 36.2399 32.5745 36.2399H36.5728C37.0805 36.2399 37.4613 35.8591 37.4613 35.3514C37.4613 34.9071 37.0805 34.4629 36.5728 34.4629Z" fill="white"/>
<path d="M42.6655 47.4731H32.5745C32.0668 47.4731 31.686 47.8538 31.686 48.3616C31.686 48.8693 32.0668 49.2501 32.5745 49.2501H42.6655C43.1732 49.2501 43.554 48.8693 43.554 48.3616C43.554 47.8538 43.1732 47.4731 42.6655 47.4731Z" fill="white"/>
<path d="M19.1836 40.6332H13.9794C13.4717 40.6332 13.0909 41.014 13.0909 41.5217C13.0909 42.0294 13.4717 42.4102 13.9794 42.4102H19.1836C19.6913 42.4102 20.0721 42.0294 20.0721 41.5217C20.1355 41.0775 19.6913 40.6332 19.1836 40.6332Z" fill="white"/>
<path d="M69.3207 46.2685H64.3705V65.5618H72.6209C74.0171 65.5618 75.096 64.4829 75.096 63.0867V52.0438C75.096 48.8071 72.494 46.2685 69.3207 46.2685Z" fill="#5987FF"/>
<path d="M65.0405 43.0841L66.2856 46.8935C66.2856 46.8935 64.8832 51.9045 63.5167 51.7233C62.3709 51.5636 62.3514 47.3409 62.3514 47.3409C62.3514 47.3409 62.5759 45.0319 62.2128 43.9566C61.8565 42.8719 65.0405 43.0841 65.0405 43.0841Z" fill="#F7A491"/>
<path d="M62.2199 43.9478C61.8568 42.8726 65.0407 43.0848 65.0407 43.0848L65.1437 43.4016C65.0909 43.6359 65.007 43.8337 64.9013 44.0016C64.3408 44.8468 63.3414 45.4645 62.4205 45.6515C62.4191 45.0421 62.3689 44.3906 62.2199 43.9478Z" fill="#F47458"/>
<path d="M64.6225 37.4736C64.7064 37.4261 66.0559 41.8111 65.1148 43.2292C64.167 44.6567 61.9908 45.429 61.017 44.5976C59.9442 43.6741 59.1893 38.8475 60.7654 37.2818C62.3497 35.7146 64.6225 37.4736 64.6225 37.4736Z" fill="#F7A491"/>
<path d="M61.0484 34.7722C62.4853 34.8248 63.5187 35.5127 63.9115 35.8146C64.5493 35.7834 65.4689 35.9891 66.5877 37.2891C67.9747 38.8951 67.4997 41.0038 66.3947 42.1903C65.2884 43.3687 65.4931 44.4954 65.4931 44.4954L65.2005 43.9429C64.981 43.5285 64.8388 43.0762 64.8184 42.6035C64.8048 42.3219 64.8116 42.0117 64.8847 41.749C65.0769 41.0488 64.0543 40.7767 63.6967 40.2852C63.4245 39.9046 63.2497 38.9567 62.8094 38.3202L62.3313 37.8571C62.3313 37.8571 61.3223 37.3155 60.4773 37.6569C59.6336 38.0064 59.2174 34.7102 61.0484 34.7722Z" fill="#13375B"/>
<path d="M63.8875 41.0802C63.9702 41.626 64.2966 42.0308 64.6149 41.9861C64.9331 41.9414 65.1281 41.4579 65.044 40.904C64.9613 40.3582 64.6349 39.9533 64.3166 39.9981C63.9984 40.0428 63.8034 40.5263 63.8875 41.0802Z" fill="#F7A491"/>
<path d="M75.2864 102.627H71.0342L61.9587 85.2374L62.0222 84.6027C62.0222 84.6027 65.7032 80.8583 68.0514 77.3043C70.3996 73.7502 71.7958 68.8634 71.7958 68.8634H64.4339V68.7365H72.24C72.24 68.7365 71.7958 76.2888 70.59 79.8429L68.686 85.872L75.2864 102.627Z" fill="#2A4280"/>
<path d="M71.8595 68.8619C71.8595 68.8619 70.3998 74.0025 68.0516 77.62C65.7034 81.174 62.0224 84.9184 62.0224 84.9184L60.2454 102.752H55.8029V83.4589C55.8029 82.5069 55.9933 81.6184 56.374 80.7299L61.007 68.8619H71.8595Z" fill="#2950B3"/>
<path d="M72.7479 68.9262C72.3036 67.3396 71.7325 65.3087 71.2882 63.1509C69.892 56.614 71.0343 48.427 65.9572 46.2058L62.2127 47.4116C62.2127 47.4116 59.8645 52.8061 60.0549 68.9262H72.7479Z" fill="#F31629"/>
<path d="M60.88 68.9262H72.7479C72.3037 67.3396 71.7325 65.3087 71.2882 63.1509C69.892 56.614 71.0344 48.427 65.9572 46.2058C65.1321 46.8404 65.5129 58.391 65.4495 61.6912C65.3225 64.2933 62.1493 67.6569 60.88 68.9262Z" fill="#F31629"/>
<path d="M72.3035 52.6165C72.5574 50.0779 69.0034 47.9836 66.5282 47.7297C63.9896 47.4759 61.7684 49.3163 61.578 51.8549L61.1972 56.5513C61.0068 58.963 62.5299 61.2477 64.8781 62.0093L72.4939 64.421L72.3035 52.6165ZM65.5128 60.3592C63.7992 59.788 62.7203 58.138 62.8473 56.3609L63.1011 52.9338C63.2915 51.0934 64.8781 49.5067 66.7186 49.5067C69.1937 49.5067 71.1612 52.5531 70.9708 54.3935L71.0977 62.1362L65.5128 60.3592Z" fill="#5987FF"/>
<path d="M67.6707 58.9631L66.6552 64.6749C66.5283 65.2461 66.211 65.8173 65.7667 66.2615L58.7221 72.5446C55.0412 76.289 54.1527 75.7813 53.3276 75.0832C52.566 74.4485 54.9142 73.1792 55.1046 73.0523C54.9777 73.1157 54.1527 73.3061 53.9623 72.9253C53.7719 72.608 55.3585 71.6561 56.1201 71.1483C56.4374 70.9579 56.6913 70.7675 56.9451 70.4502L62.7839 64.1037L63.2281 58.5188L67.6707 58.9631Z" fill="#F7A491"/>
<path d="M68.94 59.0897L62.0858 58.4551L62.5935 52.8067C62.7839 50.8393 64.5609 49.3161 66.5284 49.5065C68.4958 49.6969 69.5747 51.4105 69.3843 53.3779L68.94 59.0897Z" fill="#F31629" fill-opacity="0.8"/>
<path d="M87.4082 26.2127C93.5421 26.2127 98.5146 21.2402 98.5146 15.1063C98.5146 8.97248 93.5421 4 87.4082 4C81.2744 4 76.3019 8.97248 76.3019 15.1063C76.3019 21.2402 81.2744 26.2127 87.4082 26.2127Z" fill="#F31629" fill-opacity="0.8"/>
</g>
<defs>
<linearGradient id="paint0_linear" x1="0" y1="0" x2="89.229" y2="8.81364" gradientUnits="userSpaceOnUse">
<stop stop-color="#5081FF" stop-opacity="0.4"/>
<stop offset="1" stop-color="#5081FF" stop-opacity="0.4"/>
</linearGradient>
<linearGradient id="paint1_linear" x1="33.2948" y1="41.7611" x2="45.8587" y2="54.982" gradientUnits="userSpaceOnUse">
<stop stop-color="#5081FF"/>
<stop offset="1" stop-color="#5A88FF"/>
</linearGradient>
<linearGradient id="paint2_linear" x1="33.2948" y1="26.7833" x2="45.8587" y2="40.0042" gradientUnits="userSpaceOnUse">
<stop stop-color="#5081FF"/>
<stop offset="1" stop-color="#5A88FF"/>
</linearGradient>
<linearGradient id="paint3_linear" x1="8.09925" y1="35.3011" x2="20.6631" y2="48.522" gradientUnits="userSpaceOnUse">
<stop stop-color="#5081FF"/>
<stop offset="1" stop-color="#5A88FF"/>
</linearGradient>
</defs>
</svg>
