<svg width="277" height="118" viewBox="0 0 277 118" fill="none" xmlns="http://www.w3.org/2000/svg">
<path d="M144.475 26.7423L148.034 58.897C148.149 59.2805 148.149 59.6895 148.034 60.073C147.904 60.35 147.726 60.6015 147.507 60.8158C147.192 61.029 146.832 61.1666 146.455 61.2181C146.054 61.2521 145.65 61.2521 145.248 61.2181H143.763H141.349C140.794 61.1427 140.27 60.9181 139.832 60.5682C139.576 60.3572 139.368 60.0929 139.224 59.7937C139.079 59.4944 139.002 59.1673 138.997 58.8351L137.883 44.2897L131.012 60.0111C130.834 60.4657 130.521 60.8546 130.115 61.1253C129.779 61.3377 129.397 61.4652 129.001 61.4966H126.215C125.809 61.4067 125.429 61.2227 125.107 60.9593C124.784 60.696 124.528 60.3606 124.359 59.9802L117.612 44.2897L116.622 58.897C116.619 59.2329 116.54 59.5638 116.39 59.8642C116.239 60.1647 116.022 60.4267 115.755 60.6301C115.304 60.9772 114.771 61.2012 114.208 61.28H111.763H109.349C108.826 61.2209 108.337 60.9927 107.956 60.6301C107.706 60.424 107.517 60.154 107.408 59.8489C107.299 59.5438 107.274 59.2149 107.337 58.897L110.927 26.7423C110.915 26.3712 110.993 26.0026 111.155 25.6684C111.316 25.3341 111.557 25.0442 111.856 24.8236C113.048 24.4114 114.313 24.2533 115.569 24.3594H117.333H118.386C118.639 24.3823 118.873 24.5047 119.036 24.6998L119.407 25.1331C119.554 25.3145 119.659 25.5257 119.716 25.752C119.803 26.0464 119.907 26.3357 120.026 26.6186C120.459 27.547 123.121 34.1698 127.732 46.5489C132.436 34.1698 135.005 27.4541 135.438 26.6186C135.501 26.405 135.584 26.1978 135.685 25.9996C135.769 25.8397 135.841 25.6742 135.902 25.5044C135.882 25.3919 135.882 25.2766 135.902 25.164C135.962 25.0447 136.046 24.9393 136.15 24.8545L136.676 24.6379C136.828 24.5957 136.988 24.5957 137.14 24.6379H137.821H138.718H139.925C141.174 24.5212 142.434 24.6905 143.608 25.1331C143.854 25.3287 144.057 25.5722 144.206 25.8488C144.355 26.1254 144.447 26.4294 144.475 26.7423Z" fill="#5584FF"/>
<path d="M171.358 36.2029H172.843C173.235 36.1727 173.628 36.1727 174.019 36.2029C174.395 36.2405 174.756 36.3678 175.072 36.5742C175.294 36.7924 175.481 37.0428 175.629 37.317C175.822 37.6892 175.918 38.1045 175.907 38.5239V58.7328C175.921 59.1427 175.825 59.5488 175.629 59.9088C175.49 60.1882 175.301 60.4398 175.072 60.6515C174.76 60.8712 174.398 61.0095 174.019 61.0539C173.628 61.0876 173.235 61.0876 172.843 61.0539H169.749C169.357 61.0891 168.964 61.0891 168.573 61.0539C168.194 61.0095 167.832 60.8712 167.52 60.6515C167.291 60.4398 167.102 60.1882 166.963 59.9088C166.767 59.5488 166.671 59.1427 166.685 58.7328V49.7579L160.062 59.6612C159.489 60.2955 158.768 60.7795 157.964 61.0708C157.161 61.3622 156.297 61.452 155.451 61.3324H153.965C153.574 61.3676 153.181 61.3676 152.789 61.3324C152.403 61.2802 152.033 61.1428 151.706 60.9301C151.477 60.7184 151.288 60.4667 151.149 60.1873C150.953 59.8273 150.856 59.4212 150.871 59.0113V38.6787C150.86 38.2593 150.955 37.8439 151.149 37.4717C151.334 37.1886 151.564 36.9377 151.83 36.729C152.16 36.5289 152.53 36.4023 152.913 36.3576C153.304 36.3256 153.698 36.3256 154.089 36.3576H157.029C157.431 36.327 157.834 36.327 158.236 36.3576C158.61 36.4008 158.97 36.5277 159.288 36.729C159.51 36.9471 159.698 37.1975 159.845 37.4717C160.039 37.8439 160.135 38.2593 160.124 38.6787V47.5916L166.809 37.5336C167.397 36.729 168.913 36.2029 171.358 36.2029Z" fill="#5584FF"/>
<path d="M206.05 36.2029C207.257 36.2029 207.876 36.8838 207.876 38.2455C207.837 39.3439 207.506 40.4121 206.917 41.3402C206.555 41.8817 206.053 42.3146 205.465 42.5926C204.876 42.8706 204.223 42.9833 203.575 42.9186H189.029V58.8566C189.043 59.2665 188.947 59.6726 188.751 60.0326C188.612 60.312 188.423 60.5637 188.194 60.7754C187.882 60.995 187.52 61.1333 187.141 61.1777C186.75 61.2129 186.357 61.2129 185.965 61.1777H182.871C182.479 61.2129 182.086 61.2129 181.695 61.1777C181.316 61.1333 180.954 60.995 180.642 60.7754C180.413 60.5637 180.224 60.312 180.085 60.0326C179.889 59.6726 179.793 59.2665 179.807 58.8566V41.8973C179.717 41.0441 179.86 40.1826 180.22 39.4037C180.579 38.6248 181.142 37.9573 181.849 37.4718C183.129 36.6643 184.607 36.2253 186.12 36.2029H206.05Z" fill="#5584FF"/>
<path d="M215.892 24.5048C219.349 24.458 222.715 25.6058 225.424 27.7543C226.778 28.8139 227.86 30.1804 228.581 31.741C229.302 33.3016 229.641 35.0115 229.571 36.7292C229.666 38.501 229.334 40.2697 228.601 41.8858C227.868 43.5018 226.757 44.9176 225.362 46.0135C222.654 48.1022 219.31 49.195 215.892 49.1083H209.455V58.7949C209.469 59.2048 209.373 59.6109 209.176 59.9709C209.037 60.2503 208.848 60.502 208.619 60.7136C208.307 60.9333 207.946 61.0716 207.567 61.116C207.177 61.2783 206.773 61.4026 206.36 61.4873H203.265C202.874 61.5225 202.48 61.5225 202.089 61.4873C201.71 61.4429 201.349 61.3046 201.037 61.085C200.808 60.8733 200.619 60.6216 200.48 60.3423C200.283 59.9823 200.187 59.5761 200.201 59.1663V30.2302C200.152 29.3816 200.326 28.5349 200.706 27.7746C201.086 27.0143 201.659 26.3671 202.368 25.8975C203.533 25.0599 204.925 24.5959 206.36 24.5667L215.892 24.5048ZM214.809 42.3926C216.256 42.4219 217.66 41.9022 218.739 40.9381C219.288 40.3877 219.717 39.7296 220 39.0053C220.282 38.2809 220.411 37.5059 220.379 36.7292C220.379 33.0154 218.739 31.2205 215.644 31.2205H209.455V42.3926H214.809Z" fill="#F43C4A"/>
<path d="M253.648 36.2029C256.031 36.2029 257.393 36.4505 257.764 36.9147C257.917 37.1146 258 37.3593 258 37.611C258 37.8628 257.917 38.1075 257.764 38.3074C252.008 52.8528 248.614 61.5078 247.582 64.2725C246.901 66.6029 245.477 68.6471 243.528 70.094C241.578 71.5408 239.209 72.3112 236.781 72.288C235.362 72.2827 233.944 72.1689 232.542 71.9475C232.271 71.9298 232.008 71.851 231.772 71.717C231.536 71.583 231.334 71.3973 231.18 71.1738C231.004 70.5254 231.004 69.8416 231.18 69.1932C231.156 68.8429 231.156 68.4913 231.18 68.141C231.195 67.8626 231.195 67.5837 231.18 67.3054C231.228 66.719 231.467 66.1646 231.861 65.727C232.103 65.5768 232.373 65.4774 232.655 65.4348C232.937 65.3923 233.225 65.4074 233.501 65.4795H235.389C236.843 65.4795 238.081 64.2415 239.133 61.7038L239.907 59.7232C239.713 59.4631 239.547 59.183 239.412 58.8876L231.118 38.3074C230.643 37.1107 231.324 36.4299 233.161 36.2648C233.439 36.2648 234.182 36.2648 235.389 36.2648H237.555C237.885 36.2351 238.216 36.2351 238.545 36.2648C238.924 36.2895 239.294 36.395 239.629 36.5743C239.896 36.743 240.136 36.9518 240.34 37.1932C240.608 37.4811 240.818 37.8172 240.959 38.1836L244.58 49.1081L248.015 38.1526C248.155 37.7923 248.354 37.4576 248.603 37.1623C248.824 36.926 249.074 36.718 249.346 36.5433C249.672 36.3682 250.03 36.2628 250.398 36.2339C250.738 36.2021 251.08 36.2021 251.42 36.2339H253.648V36.2029Z" fill="#F43C4A"/>
<path d="M112.99 76.4659C112.287 76.4284 111.583 76.5416 110.927 76.7977C110.27 77.0539 109.676 77.4472 109.184 77.9514C108.673 78.5443 108.284 79.2322 108.04 79.9758C107.796 80.7193 107.701 81.5037 107.76 82.2841C107.701 83.0645 107.796 83.8489 108.04 84.5925C108.284 85.336 108.673 86.0239 109.184 86.6168C109.676 87.121 110.27 87.5143 110.927 87.7705C111.583 88.0267 112.287 88.1398 112.99 88.1023C113.693 88.1339 114.395 88.018 115.051 87.7622C115.706 87.5064 116.301 87.1162 116.797 86.6168C117.806 85.4064 118.315 83.8569 118.221 82.2841C118.315 80.7113 117.806 79.1618 116.797 77.9514C116.301 77.452 115.706 77.0618 115.051 76.806C114.395 76.5502 113.693 76.4343 112.99 76.4659V76.4659ZM114.693 85.1622C114.506 85.437 114.25 85.6585 113.952 85.805C113.654 85.9515 113.322 86.0179 112.99 85.9978C112.654 86.0173 112.319 85.9508 112.016 85.8046C111.712 85.6584 111.451 85.4373 111.257 85.1622C110.8 84.2754 110.597 83.2793 110.669 82.2841C110.597 81.2889 110.8 80.2929 111.257 79.406C111.449 79.1287 111.71 78.906 112.014 78.7595C112.317 78.6131 112.654 78.5479 112.99 78.5704C113.327 78.5479 113.664 78.6131 113.967 78.7595C114.271 78.906 114.532 79.1287 114.724 79.406C115.169 80.2964 115.361 81.2918 115.281 82.2841C115.369 83.2803 115.165 84.2805 114.693 85.1622Z" fill="#C4C5C6"/>
<path d="M124.534 80.9533H122.368V78.6632H126.298C126.605 78.6644 126.902 78.5545 127.134 78.3537C127.328 78.207 127.47 78.0005 127.536 77.7657C127.566 77.5708 127.566 77.3726 127.536 77.1777C127.536 76.7444 127.35 76.5278 126.979 76.5278H121.501C121.235 76.4828 120.963 76.4828 120.696 76.5278C120.376 76.6236 120.094 76.8186 119.892 77.0849C119.624 77.3932 119.48 77.7905 119.49 78.199V87.1429C119.487 87.2454 119.505 87.3475 119.542 87.4432C119.579 87.5388 119.635 87.6261 119.706 87.6999C119.824 87.8114 119.977 87.8773 120.139 87.8856H124.843C125.796 87.8811 126.716 87.5414 127.443 86.9262C127.837 86.6013 128.148 86.1883 128.353 85.7205C128.557 85.2527 128.648 84.7434 128.619 84.2338C128.663 83.736 128.578 83.2352 128.372 82.7799C128.166 82.3246 127.846 81.93 127.443 81.6342C126.568 81.1093 125.551 80.8712 124.534 80.9533V80.9533ZM124.317 85.905H122.368V82.8102H124.534C124.691 82.8114 124.847 82.845 124.99 82.9088C125.134 82.9727 125.263 83.0656 125.37 83.1816C125.515 83.3567 125.622 83.5595 125.686 83.7777C125.75 83.9959 125.769 84.2248 125.741 84.4504C125.896 85.3788 125.277 85.905 124.317 85.905V85.905Z" fill="#C4C5C6"/>
<path d="M137.996 80.8295H135.83V77.3014C135.846 77.1032 135.791 76.9057 135.675 76.7444C135.626 76.6611 135.551 76.5954 135.462 76.5565C135.374 76.5177 135.275 76.5076 135.18 76.5277H130.631C130.437 76.4976 130.239 76.5223 130.058 76.5988C129.878 76.6754 129.723 76.8008 129.61 76.961C129.41 77.2413 129.302 77.5763 129.3 77.9204C129.3 78.3846 129.486 78.6012 129.888 78.6012H132.983V87.2047C132.98 87.3073 132.998 87.4093 133.035 87.505C133.072 87.6006 133.128 87.6879 133.199 87.7617C133.317 87.8733 133.471 87.9391 133.633 87.9474H138.275C139.227 87.9429 140.148 87.6032 140.874 86.9881C141.268 86.6632 141.58 86.2501 141.784 85.7823C141.988 85.3145 142.08 84.8052 142.051 84.2956C142.098 83.7795 142.016 83.2597 141.81 82.7838C141.605 82.308 141.283 81.8914 140.874 81.5722C140.017 81.0281 139.01 80.7682 137.996 80.8295V80.8295ZM137.78 85.9049H135.83V82.8101H138.275H138.646C138.724 82.8578 138.792 82.9208 138.845 82.9952C138.898 83.0697 138.936 83.1541 138.956 83.2434C139.007 83.5091 139.007 83.7823 138.956 84.048C139.203 85.3788 138.739 85.9049 137.78 85.9049Z" fill="#C4C5C6"/>
<path d="M150.159 78.6632C150.357 78.6735 150.555 78.6335 150.733 78.547C150.912 78.4604 151.066 78.33 151.18 78.168C151.361 77.8694 151.458 77.527 151.459 77.1777C151.459 76.7444 151.273 76.5278 150.902 76.5278H145.362C144.879 76.5313 144.407 76.6707 144 76.9301C143.778 77.0833 143.6 77.2932 143.486 77.538C143.372 77.7829 143.325 78.0538 143.35 78.3228V87.2667C143.314 87.3878 143.314 87.5169 143.35 87.638C143.397 87.731 143.46 87.8149 143.536 87.8856H143.846H150.035C150.234 87.9022 150.434 87.8649 150.614 87.7778C150.793 87.6907 150.946 87.5569 151.056 87.3905C151.238 87.0919 151.334 86.7494 151.335 86.4001C151.335 85.9978 151.149 85.7812 150.778 85.7812H146.198V83.3053H148.488C148.691 83.3243 148.896 83.2884 149.081 83.2013C149.266 83.1142 149.425 82.9792 149.54 82.8102C149.721 82.5116 149.817 82.1692 149.818 81.8199C149.818 81.4175 149.633 81.2009 149.261 81.2009H146.167V78.5085L150.159 78.6632Z" fill="#C4C5C6"/>
<path d="M163.373 85.9049H163.033V77.3014C163.044 77.198 163.03 77.0935 162.993 76.9965C162.955 76.8996 162.894 76.8131 162.816 76.7444C162.688 76.6307 162.524 76.5651 162.352 76.5587H155.018C154.916 76.5378 154.81 76.5378 154.708 76.5587C154.632 76.6294 154.569 76.7133 154.522 76.8063C154.486 76.9274 154.486 77.0565 154.522 77.1776V81.5413C154.552 82.5836 154.437 83.625 154.182 84.636C153.934 85.3788 153.625 85.7501 153.223 85.7501C153.15 85.7444 153.077 85.7587 153.011 85.7914C152.946 85.8241 152.89 85.874 152.851 85.9358C152.822 86.0475 152.822 86.1646 152.851 86.2763V88.5354C152.826 88.8044 152.872 89.0753 152.987 89.3202C153.101 89.565 153.279 89.7749 153.501 89.9281C153.895 90.1915 154.358 90.3315 154.832 90.3304C155.389 90.3304 155.698 90.0828 155.698 89.5877V87.8855H161.331V88.5354C161.305 88.8044 161.352 89.0753 161.466 89.3202C161.581 89.565 161.758 89.7749 161.981 89.9281C162.377 90.1865 162.839 90.3261 163.312 90.3304C163.9 90.3304 164.178 90.0828 164.178 89.5877V86.4929C164.013 86.1009 163.745 85.9049 163.373 85.9049ZM160.031 85.9049H156.596C157.096 84.733 157.329 83.4643 157.277 82.1912V78.6631H159.938L160.031 85.9049Z" fill="#C4C5C6"/>
<path d="M174.236 76.6207H173.896H173.37C173.043 76.5735 172.709 76.605 172.397 76.7127C172.085 76.8203 171.803 77.001 171.575 77.2397C171.348 77.5285 170.172 79.2925 168.047 82.5317V77.3016C168.083 77.1804 168.083 77.0513 168.047 76.9302C168 76.8372 167.937 76.7533 167.861 76.6826C167.758 76.6674 167.654 76.6674 167.551 76.6826H165.88H165.54C165.464 76.7533 165.401 76.8372 165.354 76.9302C165.334 77.0532 165.334 77.1786 165.354 77.3016V87.2667C165.337 87.4209 165.337 87.5767 165.354 87.7309C165.405 87.8329 165.494 87.9107 165.602 87.9476H165.942H166.468C167.366 87.9476 167.923 87.9476 168.17 87.4524C168.418 86.9572 169.563 85.4099 171.791 82.0366V87.1739C171.755 87.295 171.755 87.4241 171.791 87.5452C171.817 87.6414 171.871 87.7277 171.946 87.7928H172.286H173.865C174.036 87.7864 174.2 87.7208 174.329 87.6071C174.411 87.5399 174.476 87.4546 174.519 87.3579C174.562 87.2612 174.581 87.1558 174.577 87.0501V77.3016C174.596 77.1474 174.596 76.9915 174.577 76.8373C174.55 76.7697 174.503 76.7121 174.442 76.6732C174.381 76.6342 174.309 76.6158 174.236 76.6207Z" fill="#C4C5C6"/>
<path d="M185.191 76.6824H184.851H183.273C183.101 76.6888 182.937 76.7544 182.808 76.8681C182.727 76.9353 182.662 77.0206 182.619 77.1173C182.576 77.214 182.556 77.3194 182.561 77.4251V81.4793H179.002V77.3013C179.022 77.1784 179.022 77.0529 179.002 76.93C178.955 76.8369 178.892 76.7531 178.816 76.6824H178.476H176.805C176.702 76.6671 176.598 76.6671 176.495 76.6824C176.419 76.7531 176.356 76.8369 176.309 76.93C176.273 77.0511 176.273 77.1802 176.309 77.3013V87.2665C176.273 87.3876 176.273 87.5167 176.309 87.6379C176.356 87.7309 176.419 87.8147 176.495 87.8854H176.805H178.507H178.847C178.923 87.8147 178.986 87.7309 179.033 87.6379C179.053 87.5149 179.053 87.3894 179.033 87.2665V83.4599H182.592V87.2665C182.587 87.3722 182.607 87.4776 182.65 87.5743C182.693 87.671 182.758 87.7563 182.839 87.8235C182.968 87.9372 183.132 88.0028 183.304 88.0092H184.882H185.222L185.377 87.7616C185.413 87.6405 185.413 87.5114 185.377 87.3903V77.3013C185.413 77.1802 185.413 77.0511 185.377 76.93L185.191 76.6824Z" fill="#C4C5C6"/>
<path d="M193.981 76.5277H190.886C189.775 76.4815 188.682 76.8204 187.791 77.4871C187.356 77.7952 187.007 78.2107 186.779 78.6933C186.551 79.1759 186.452 79.7092 186.492 80.2415C186.483 80.8944 186.666 81.5354 187.018 82.0854C187.37 82.6354 187.876 83.0703 188.472 83.3362L186.368 87.2975C186.326 87.3622 186.304 87.4374 186.304 87.5142C186.304 87.5909 186.326 87.6661 186.368 87.7308C186.368 87.8855 186.925 87.9474 187.668 87.9474H188.658H188.967C189.064 87.9064 189.149 87.8427 189.215 87.7618C189.314 87.68 189.389 87.5731 189.432 87.4523L191.134 84.048H192.712V87.3285C192.676 87.4496 192.676 87.5787 192.712 87.6999C192.759 87.7929 192.821 87.8767 192.898 87.9474H193.207H194.816C194.988 87.941 195.152 87.8754 195.281 87.7618C195.359 87.693 195.419 87.6065 195.457 87.5096C195.495 87.4127 195.508 87.3081 195.497 87.2047V78.3227C195.518 78.0619 195.472 77.8002 195.363 77.5621C195.255 77.324 195.088 77.1172 194.878 76.961C194.614 76.7533 194.308 76.6055 193.981 76.5277V76.5277ZM192.991 81.8507H191.35C191.022 81.8315 190.706 81.7225 190.435 81.5356C190.165 81.3488 189.951 81.0912 189.817 80.7911C189.683 80.491 189.633 80.1598 189.675 79.8336C189.716 79.5075 189.846 79.199 190.051 78.9417C190.377 78.7163 190.769 78.6072 191.165 78.6322H192.991V81.8507Z" fill="#C4C5C6"/>
<path d="M204.317 78.6632C204.516 78.6797 204.716 78.6425 204.896 78.5554C205.075 78.4683 205.228 78.3345 205.339 78.168C205.542 77.8782 205.651 77.532 205.648 77.1777C205.648 76.7444 205.462 76.5278 205.091 76.5278H199.52C199.048 76.5321 198.586 76.6717 198.19 76.9301C197.967 77.0833 197.79 77.2932 197.675 77.538C197.561 77.7829 197.514 78.0538 197.54 78.3228V87.2667C197.504 87.3878 197.504 87.5169 197.54 87.638C197.565 87.7342 197.619 87.8205 197.695 87.8856H198.035H204.225C204.424 87.9093 204.627 87.8753 204.808 87.7875C204.989 87.6998 205.141 87.562 205.246 87.3905C205.45 87.1006 205.558 86.7544 205.555 86.4001C205.555 85.9978 205.37 85.7812 204.998 85.7812H200.387V83.3053H202.677C202.877 83.3291 203.079 83.295 203.26 83.2073C203.441 83.1195 203.593 82.9817 203.698 82.8102C203.902 82.5203 204.01 82.1741 204.008 81.8199C204.008 81.4175 203.822 81.2009 203.42 81.2009H200.325V78.5085L204.317 78.6632Z" fill="#C4C5C6"/>
<path d="M219.055 77.1755C219.058 77.0591 219.031 76.9439 218.977 76.8409C218.922 76.7379 218.843 76.6505 218.745 76.587C218.367 76.5076 217.599 76.4775 217.599 76.4775C217.599 76.4775 216.722 76.4775 216.391 76.6799C216.119 76.9028 215.245 79.4986 213.789 83.3705C212.302 79.5296 211.406 76.9029 211.187 76.6799C210.828 76.4351 209.875 76.4775 209.875 76.4775C209.875 76.4775 209.199 76.453 208.833 76.587C208.733 76.6482 208.652 76.7351 208.597 76.8387C208.543 76.9423 208.517 77.0586 208.523 77.1755L207.408 87.2424C207.383 87.3387 207.387 87.4404 207.42 87.5343C207.453 87.6283 207.514 87.71 207.594 87.7689C207.714 87.8824 207.865 87.9579 208.028 87.9858H209.545C209.716 87.9529 209.875 87.8784 210.01 87.7689C210.102 87.7165 210.176 87.6392 210.226 87.546C210.275 87.4528 210.297 87.3475 210.289 87.2424L210.506 82.6271L212.767 87.5831C212.836 87.7145 212.89 87.8305 213.005 87.9238C213.106 87.9569 213.346 87.9548 213.346 87.9548H214.213C214.213 87.9548 214.432 87.9569 214.532 87.9238C214.664 87.8482 214.763 87.727 214.811 87.5831L216.979 82.6271L217.289 87.2114C217.289 87.4592 217.495 87.6598 217.568 87.738C217.641 87.8161 217.862 87.9219 218.033 87.9548H219.612C219.724 87.9823 219.866 87.7852 219.904 87.6514C219.941 87.5177 219.904 87.3838 219.904 87.2114C219.904 87.039 219.836 86.2565 219.836 86.2565L219.055 77.1755Z" fill="#C4C5C6"/>
<g filter="url(#filter0_d)">
<path fill-rule="evenodd" clip-rule="evenodd" d="M25.3593 56.621C25.368 73.8805 39.3623 87.8694 56.6239 87.8694C73.8909 87.8694 87.8885 73.8718 87.8885 56.6049C87.8885 39.3379 73.8909 25.3403 56.6239 25.3403C56.6229 25.3403 56.622 25.3403 56.621 25.3403V56.621H25.3593Z" fill="white"/>
</g>
<path fill-rule="evenodd" clip-rule="evenodd" d="M36.2991 56.6208C36.2991 67.8444 45.3975 76.9428 56.6211 76.9428C67.8446 76.9428 76.943 67.8444 76.943 56.6208C76.943 45.3973 67.8446 36.2989 56.6211 36.2989C56.621 36.2989 56.621 36.2989 56.621 36.2989V56.6209L36.2991 56.6208Z" fill="url(#paint0_linear)"/>
<path fill-rule="evenodd" clip-rule="evenodd" d="M46.9772 56.621C46.9772 61.9471 51.2949 66.2648 56.621 66.2648C61.9472 66.2648 66.2648 61.9471 66.2648 56.621C66.2648 51.2949 61.9472 46.9772 56.621 46.9772C56.621 46.9772 56.621 46.9772 56.621 46.9772V56.621H46.9772Z" fill="white"/>
<g filter="url(#filter1_d)">
<path fill-rule="evenodd" clip-rule="evenodd" d="M71.36 27.1452C65.7032 21.4945 57.892 18 49.2646 18C31.9976 18 18 31.9976 18 49.2646C18 49.2646 18 49.2646 18 49.2646H49.2646V18C57.892 18 65.7032 21.4945 71.36 27.1452Z" fill="white"/>
</g>
<path fill-rule="evenodd" clip-rule="evenodd" d="M49.2646 28.9426L49.2646 49.2646H28.9426C28.9426 38.0411 38.0411 28.9426 49.2646 28.9426Z" fill="#F54554"/>
<path fill-rule="evenodd" clip-rule="evenodd" d="M49.2646 39.6207V49.2646H39.6208C39.6208 49.2645 39.6208 49.2645 39.6208 49.2645C39.6208 43.9384 43.9385 39.6207 49.2646 39.6207Z" fill="white"/>
<defs>
<filter id="filter0_d" x="7.35931" y="7.34027" width="110.529" height="110.529" filterUnits="userSpaceOnUse" color-interpolation-filters="sRGB">
<feFlood flood-opacity="0" result="BackgroundImageFix"/>
<feColorMatrix in="SourceAlpha" type="matrix" values="0 0 0 0 0 0 0 0 0 0 0 0 0 0 0 0 0 0 127 0"/>
<feOffset dx="6" dy="6"/>
<feGaussianBlur stdDeviation="12"/>
<feColorMatrix type="matrix" values="0 0 0 0 0.652778 0 0 0 0 0.706536 0 0 0 0 0.783333 0 0 0 0.25 0"/>
<feBlend mode="normal" in2="BackgroundImageFix" result="effect1_dropShadow"/>
<feBlend mode="normal" in="SourceGraphic" in2="effect1_dropShadow" result="shape"/>
</filter>
<filter id="filter1_d" x="0" y="0" width="101.36" height="79.2646" filterUnits="userSpaceOnUse" color-interpolation-filters="sRGB">
<feFlood flood-opacity="0" result="BackgroundImageFix"/>
<feColorMatrix in="SourceAlpha" type="matrix" values="0 0 0 0 0 0 0 0 0 0 0 0 0 0 0 0 0 0 127 0"/>
<feOffset dx="6" dy="6"/>
<feGaussianBlur stdDeviation="12"/>
<feColorMatrix type="matrix" values="0 0 0 0 0.652778 0 0 0 0 0.706536 0 0 0 0 0.783333 0 0 0 0.25 0"/>
<feBlend mode="normal" in2="BackgroundImageFix" result="effect1_dropShadow"/>
<feBlend mode="normal" in="SourceGraphic" in2="effect1_dropShadow" result="shape"/>
</filter>
<linearGradient id="paint0_linear" x1="45.3956" y1="36.2989" x2="80.9955" y2="56.6471" gradientUnits="userSpaceOnUse">
<stop stop-color="#5081FF"/>
<stop offset="1" stop-color="#5A88FF"/>
</linearGradient>
</defs>
</svg>
