<svg width="24" 
    height="24" 
    viewBox="0 0 24 24" 
    fill="none" 
    xmlns="http://www.w3.org/2000/svg">
    <path fill-rule="evenodd" 
        clip-rule="evenodd" 
        d="M13.128 18.8262C13.128 18.8262 13.5431 18.7809 13.7557 18.5567C13.9503 18.3513 13.9435 17.9638 13.9435 17.9638C13.9435 17.9638 13.9177 16.1539 14.7737 15.8867C15.6174 15.6239 16.7007 17.6369 17.8504 18.411C18.7189 18.9962 19.3781 18.8681 19.3781 18.8681L22.4503 18.8262C22.4503 18.8262 24.0567 18.729 23.2951 17.4889C23.2321 17.3874 22.8507 16.5713 21.0115 14.8951C19.0845 13.1405 19.3432 13.4243 21.6628 10.3888C23.0757 8.54028 23.6404 7.41176 23.4638 6.92921C23.2962 6.46764 22.2568 6.59021 22.2568 6.59021L18.7987 6.61119C18.7987 6.61119 18.5422 6.57696 18.3521 6.68849C18.1665 6.79781 18.0462 7.05288 18.0462 7.05288C18.0462 7.05288 17.4994 8.48286 16.7694 9.69972C15.2293 12.2659 14.614 12.4018 14.362 12.2428C13.7759 11.8706 13.9222 10.7498 13.9222 9.95369C13.9222 7.46587 14.3069 6.42899 13.1741 6.16067C12.7983 6.07122 12.5216 6.0127 11.5598 6.00276C10.3258 5.99062 9.28182 6.00718 8.6901 6.29097C8.29638 6.47979 7.99265 6.9016 8.17826 6.9259C8.40662 6.95571 8.92409 7.06282 9.19857 7.42943C9.55292 7.90314 9.54055 8.96541 9.54055 8.96541C9.54055 8.96541 9.74416 11.8938 9.0647 12.2571C8.59898 12.5067 7.96002 11.9976 6.58648 9.6688C5.8834 8.47623 5.35243 7.15779 5.35243 7.15779C5.35243 7.15779 5.25006 6.91154 5.0667 6.77904C4.84509 6.61892 4.53573 6.56923 4.53573 6.56923L1.24981 6.59021C1.24981 6.59021 0.755965 6.60346 0.574851 6.81437C0.413986 7.00098 0.562477 7.38857 0.562477 7.38857C0.562477 7.38857 3.13519 13.2973 6.04876 16.2754C8.72048 19.005 11.7533 18.8262 11.7533 18.8262H13.128Z" 
        fill="#4C6C91"/>
</svg>
