<svg width="82" height="82" viewBox="0 0 82 82" fill="none" xmlns="http://www.w3.org/2000/svg">
<rect width="82" height="82" rx="41" fill="url(#paint0_linear)" fill-opacity="0.4"/>
<mask id="mask0" mask-type="alpha" maskUnits="userSpaceOnUse" x="0" y="0" width="82" height="82">
<rect width="82" height="82" rx="41" fill="white"/>
</mask>
<g mask="url(#mask0)">
<path d="M66.2657 61.7027C66.2657 61.7027 62.7603 68.2978 59.2548 69.6049C55.7494 70.9714 46.4807 69.189 36.1425 65.2676C25.8044 61.3462 17.6646 56.5931 15.9415 53.2658C14.1591 49.998 15.8227 42.7495 15.8227 42.7495L66.2657 61.7027Z" fill="#F31629"/>
<path d="M66.2695 61.713C67.4966 58.4584 57.2161 51.5687 43.3072 46.3245C29.3983 41.0802 17.1282 39.4673 15.9011 42.7219C14.6739 45.9765 24.9545 52.8662 38.8634 58.1105C52.7722 63.3547 65.0424 64.9677 66.2695 61.713Z" fill="white"/>
<path d="M-2.77414 35.0847C11.0695 40.5509 15.9415 46.4329 15.9415 46.4329L15.8226 51.0673C15.8226 51.0673 11.6042 45.6606 -4.55658 39.0061C-3.96243 37.699 -3.36829 36.3919 -2.77414 35.0847Z" fill="white"/>
<path d="M8.69291 39.7192C10 40.3728 6.37573 45.8389 6.37573 45.8389C6.37573 45.8389 -10.201 37.7585 -21.9651 33.4807C-22.7374 33.1836 -23.3316 32.6489 -23.6881 31.8765C-24.0446 31.1635 -24.0446 30.2723 -23.7475 29.5593C-23.4504 28.7869 -22.8563 28.1333 -22.0839 27.8363C-21.3115 27.4798 -20.4797 27.4798 -19.7073 27.7769C-13.4093 30.2723 1.68198 36.2732 8.69291 39.7192Z" fill="#5685FF"/>
<path d="M47.0748 48.2157L33.8847 50.414L33.7065 51.6023C33.7065 51.6023 38.222 58.0191 44.6982 56.1772C51.115 54.3354 47.0748 48.2157 47.0748 48.2157Z" fill="#D43A47"/>
<path d="M47.0748 48.2161L33.8847 50.4145C33.8847 50.4145 38.4002 56.8313 44.8764 54.9894C51.2932 53.0881 47.0748 48.2161 47.0748 48.2161Z" fill="#F54554"/>
<path d="M41.8462 54.3953C43.0345 54.3953 45.1734 54.9301 45.7082 53.8606C46.2429 52.8506 42.7969 49.5827 41.4897 49.4639C40.1826 49.3451 40.6579 54.3953 41.8462 54.3953Z" fill="#D53A47"/>
<path d="M39.0537 53.6227C37.2119 53.1474 35.3106 51.8403 35.3106 51.0085C35.3106 50.1767 39.529 49.4637 40.0044 50.1767C40.4797 50.8896 40.955 54.098 39.0537 53.6227Z" fill="#D53A47"/>
<path d="M43.391 49.4638C43.9257 48.3944 47.0153 48.8697 47.0153 48.8697C47.0153 48.8697 48.8571 51.7216 46.837 52.8505C46.3023 53.1475 43.2127 49.8203 43.391 49.4638Z" fill="#D53A47"/>
<path d="M55.0364 58.5535C55.0364 58.5535 57.1753 58.3753 58.8983 60.2172C59.4925 60.336 61.1561 58.7318 60.9184 58.1971C59.6707 57.3058 57.6506 55.9393 57.8883 54.751C57.1753 54.8104 55.0364 58.5535 55.0364 58.5535Z" fill="#50D0A4"/>
<path d="M55.4522 57.8406C56.2246 57.6623 57.1752 58.0782 57.6506 58.3159C56.9376 57.5435 55.9869 56.8305 55.9869 56.8305L55.4522 57.8406Z" fill="#A9A9A9" fill-opacity="0.4"/>
<path d="M56.9971 56.0582L58.7795 57.4841C58.7795 57.4841 57.4724 55.9988 57.413 55.0481C57.1159 54.9887 56.9971 56.0582 56.9971 56.0582Z" fill="#A9A9A9" fill-opacity="0.4"/>
<path d="M58.6607 54.0384C58.5418 53.8007 58.3042 53.563 58.0071 53.4442C58.0071 52.4936 56.9376 52.3747 56.2247 52.4936C55.987 51.9588 55.4523 51.7212 54.977 51.8994C54.7987 51.9588 54.6799 52.0777 54.5611 52.2559C54.5016 52.2559 52.9569 51.4835 52.4815 53.3848C51.8874 53.3254 51.4121 54.276 51.6497 54.5137C50.7585 54.6919 50.7585 55.8208 50.9368 56.2961C51.0556 56.5932 51.3527 56.8903 51.7686 57.0091C51.0556 58.138 52.1845 59.0292 52.8974 58.4945C53.1351 59.0886 54.0857 59.3263 54.8581 59.0292C55.3335 58.7915 55.8088 58.3162 55.8682 57.5438C56.0464 57.5438 56.2247 57.4844 56.4029 57.3656C57.1753 57.0091 57.8289 56.2961 57.8289 55.5831C58.6607 55.2266 58.8983 54.5137 58.6607 54.0384Z" fill="#57E1B1"/>
<path d="M36.2019 41.9769C41.1333 46.4924 43.9852 51.305 52.1844 52.8498C55.0363 53.3845 57.7694 52.9686 59.1953 50.8297C57.7694 51.5427 55.9275 51.6021 54.0262 51.2456C45.827 49.7008 43.0345 44.8882 38.0437 40.3727C36.1424 38.6497 33.2311 34.966 35.6671 31.8764C35.6077 31.9358 35.5483 31.9358 35.4889 31.9952C30.4386 35.263 34.0035 39.9568 36.2019 41.9769Z" fill="#874427"/>
<path d="M38.0437 40.3728C42.9751 44.9477 45.827 49.7009 54.0262 51.2456C55.9275 51.6021 57.7693 51.5427 59.1953 50.8297C59.4924 50.4138 59.73 49.8791 59.9083 49.285C61.6313 43.2841 56.5216 39.6598 51.709 36.1543C45.4111 31.5794 40.3608 28.9057 35.6671 31.817C33.2311 34.966 36.1424 38.6497 38.0437 40.3728Z" fill="#9D5835"/>
<path d="M42.9157 32.3515C37.4495 31.5791 34.5382 38.4712 41.8462 39.4219C43.7475 39.6595 45.827 39.2436 47.7283 39.5407C48.5601 39.6595 50.1048 40.6101 51.2931 40.7884C52.0655 40.9072 52.3032 40.6101 52.422 40.016C52.8379 37.4018 47.3718 32.9457 42.9157 32.3515Z" fill="#BA7656"/>
<path d="M58.1259 47.5022C57.8288 49.5223 55.8681 49.8788 53.9075 49.6412C50.402 49.1658 42.6781 44.1156 43.0346 41.8578C43.1534 40.9666 44.2229 40.729 45.1735 40.8478C46.8371 41.0855 48.1442 42.452 49.8078 42.6896C51.6497 42.9273 52.8974 41.4419 54.6798 41.5014C56.284 41.7984 58.423 45.3039 58.1259 47.5022Z" fill="#BA7656"/>
<path d="M26.9927 23.9148C27.1115 25.2813 30.0822 26.1131 33.6471 25.7566C37.1526 25.4001 39.8857 23.9742 39.7668 22.6076C39.5886 21.2411 36.6179 20.4093 33.1124 20.7658C29.5475 21.1223 26.8144 22.5482 26.9927 23.9148ZM28.2998 23.7959C28.181 22.7859 30.2011 21.7758 32.7559 21.5382C35.3107 21.3005 37.4497 21.8947 37.5685 22.9047C37.6873 23.9148 35.6672 24.9248 33.1124 25.1625C30.5576 25.4001 28.4186 24.806 28.2998 23.7959Z" fill="#A9A9A9" fill-opacity="0.6"/>
<path d="M26.9332 23.4991C27.0521 24.8657 30.0228 25.6975 33.5877 25.341C37.0931 24.9845 39.8262 23.5585 39.7074 22.192C39.5886 20.8255 36.6178 19.9937 33.0529 20.3501C29.5475 20.6472 26.8144 22.0732 26.9332 23.4991ZM28.2998 23.3209C28.1809 22.3108 30.201 21.3008 32.7559 21.0631C35.3107 20.8255 37.4496 21.4196 37.5685 22.4297C37.6873 23.4397 35.6672 24.4498 33.1124 24.6874C30.5575 24.9251 28.3592 24.3309 28.2998 23.3209Z" fill="white"/>
<path d="M25.2102 37.5202C24.3784 38.6491 25.9825 41.2633 28.775 43.4022C31.5675 45.5412 34.5383 46.373 35.3701 45.3035C36.2019 44.1746 34.5977 41.5604 31.8052 39.4214C29.0721 37.2231 26.1014 36.3913 25.2102 37.5202ZM26.339 38.2926C26.9332 37.5202 29.0721 38.1143 31.1516 39.6591C33.1717 41.2039 34.36 43.1052 33.7065 43.937C33.1123 44.7094 30.9734 44.1152 28.8939 42.5704C26.8738 41.0256 25.6855 39.1244 26.339 38.2926Z" fill="#A9A9A9" fill-opacity="0.6"/>
<path d="M25.5072 37.1638C24.6754 38.2926 26.2796 40.9069 29.0721 43.0458C31.8646 45.1847 34.8353 46.0166 35.6671 44.9471C36.4989 43.8182 34.8947 41.204 32.1022 39.065C29.3098 36.9261 26.339 36.0349 25.5072 37.1638ZM26.5767 37.9956C27.1708 37.2232 29.3098 37.8173 31.3893 39.3621C33.4094 40.9069 34.5977 42.8082 33.9441 43.64C33.3499 44.4124 31.211 43.8182 29.1315 42.2734C27.1114 40.6692 25.9825 38.768 26.5767 37.9956Z" fill="white"/>
<path d="M69.1176 48.0371C69.5335 48.6312 70.2465 49.3442 71.0783 49.9383C72.8607 51.186 74.7026 51.6614 75.1779 50.9484C75.6532 50.2354 74.6432 48.6906 72.8607 47.3835C72.0884 46.8488 71.3754 46.4923 70.6624 46.2546L70.4247 45.5417C71.3754 45.8387 72.3854 46.3735 73.4549 47.1459C75.8909 48.8689 77.3168 51.0672 76.6633 52.0179C75.9503 52.9685 73.4549 52.3743 71.0189 50.5919C69.7118 49.7007 68.7017 48.6312 68.167 47.74L69.1176 48.0371Z" fill="#A9A9A9" fill-opacity="0.6"/>
<path d="M69.6523 48.2152C70.0682 48.6905 70.603 49.2253 71.2565 49.6412C73.039 50.8889 74.8808 51.3642 75.3561 50.6512C75.8314 49.9382 74.8214 48.3934 73.039 47.0863C72.1477 46.4328 71.2565 46.0169 70.5435 45.8386L70.3059 45.1256C71.3159 45.4227 72.5042 45.9574 73.6331 46.7893C76.0691 48.5123 77.4951 50.7106 76.8415 51.6613C76.1285 52.6119 73.6331 52.0177 71.1971 50.2353C70.1276 49.4629 69.2364 48.6311 68.6423 47.7993L69.6523 48.2152Z" fill="white"/>
<path d="M35.9642 32.5308C33.5282 31.7584 31.2705 31.9367 30.9734 32.8873C30.7951 33.5409 31.5081 34.4321 32.8152 35.145C32.637 35.3827 32.4588 35.561 32.2211 35.7392C29.9633 34.6697 28.5374 33.2438 28.8939 32.2337C29.3098 30.9266 32.3993 30.689 35.786 31.7584C37.2119 32.2337 38.4596 32.8279 39.4103 33.4814L38.5785 33.7785C37.9249 33.3032 36.9743 32.8873 35.9642 32.5308Z" fill="#D43A47"/>
<path d="M36.083 32.1148C33.647 31.3424 31.3893 31.5206 31.0922 32.4713C30.8545 33.1248 31.6863 34.0755 33.0529 34.7884C32.8746 35.0261 32.6964 35.2044 32.5181 35.442C30.1415 34.3725 28.6562 32.8872 29.0127 31.8177C29.4286 30.5106 32.5181 30.2729 35.9048 31.3424C37.509 31.8771 38.9349 32.5307 39.8855 33.3031L39.0537 33.6002C38.3408 33.006 37.3307 32.4713 36.083 32.1148Z" fill="#F54554"/>
<path d="M69.1176 21.8951C70.9594 21.4792 72.5636 21.7169 72.6825 22.4299C72.8013 22.9052 72.2071 23.4993 71.1971 23.9747C71.3159 24.1529 71.4347 24.3311 71.613 24.45C73.2766 23.7964 74.4055 22.8458 74.2272 22.0734C73.9896 21.0633 71.7912 20.7663 69.2958 21.301C68.2264 21.5387 67.2757 21.8951 66.5627 22.311L67.1569 22.6081C67.6322 22.3705 68.3452 22.0734 69.1176 21.8951Z" fill="#D43A47"/>
<path d="M69.0582 21.5979C70.9001 21.182 72.5043 21.4197 72.6231 22.1326C72.7419 22.6674 72.0884 23.2615 71.0783 23.6774C71.1971 23.8557 71.316 24.0339 71.4348 24.1527C73.2172 23.4992 74.4055 22.5485 74.2273 21.7167C73.9896 20.7067 71.7913 20.4096 69.2959 20.9443C68.1076 21.2414 67.0381 21.6573 66.3251 22.1326L66.9193 22.4297C67.3352 22.1326 68.1076 21.8356 69.0582 21.5979Z" fill="#F54554"/>
<path d="M52.3627 44.6513C53.2539 46.909 58.3042 50.1174 57.8883 46.909C57.413 43.5818 54.3828 42.8688 54.3828 42.8688C54.3828 42.8094 54.3234 42.75 54.264 42.6906C54.3828 42.6312 54.4422 42.5123 54.5611 42.3935C54.6205 42.3341 54.6799 42.2747 54.7393 42.1559C54.7987 42.2747 54.7987 42.3341 54.8581 42.4529C54.8581 42.4529 58.3636 43.5224 58.8389 47.6814C59.3142 51.8404 52.8974 47.8597 52.0062 44.9483C52.1251 44.8889 52.2439 44.7701 52.3627 44.6513Z" fill="#74C1A6"/>
<path d="M52.6598 44.235C53.551 46.4928 58.6013 49.7606 58.1854 46.4928C57.71 43.1655 54.6799 42.4526 54.6799 42.4526C54.6799 42.3931 54.6205 42.3931 54.6205 42.3337C54.6799 42.2743 54.7393 42.1555 54.7987 42.0961C54.7987 42.1555 54.8581 42.2149 54.8581 42.3337C54.8581 42.3337 58.6013 43.1655 59.0766 47.3246C59.4925 51.4242 53.3134 47.6216 52.2439 44.7103C52.4816 44.5915 52.6004 44.4132 52.6598 44.235Z" fill="#57E1B1"/>
<path d="M59.3142 32.5897L71.4348 38.1747L71.2565 39.4224C71.2565 39.4224 65.1962 44.4132 59.4924 40.9078C53.7886 37.4023 59.3142 32.5897 59.3142 32.5897Z" fill="#D43A47"/>
<path d="M59.3142 32.5892L71.4348 38.1742C71.4348 38.1742 65.3745 43.165 59.6707 39.6596C53.9074 36.1541 59.3142 32.5892 59.3142 32.5892Z" fill="#F54554"/>
<path d="M62.7008 39.8972C61.5719 39.6002 59.3142 39.5407 59.1359 38.3524C58.8983 37.2236 63.0573 34.9658 64.3644 35.2629C65.6121 35.5005 63.8297 40.1943 62.7008 39.8972Z" fill="#D53A47"/>
<path d="M65.5528 39.8974C67.5135 39.8974 69.6524 39.1844 69.8306 38.412C70.0683 37.5802 66.1469 35.7978 65.5528 36.3325C64.9586 36.9266 63.5921 39.838 65.5528 39.8974Z" fill="#D53A47"/>
<path d="M62.5226 34.7282C62.2849 33.5399 59.1954 33.1834 59.1954 33.1834C59.1954 33.1834 56.7 35.4411 58.3042 37.1047C58.7201 37.5206 62.582 35.1441 62.5226 34.7282Z" fill="#D53A47"/>
<path d="M52.3032 25.2823C52.3032 25.2823 50.9961 27.4213 48.0848 27.7183C47.5501 28.1937 47.9065 30.8079 48.5601 30.9862C50.2831 30.4514 52.8974 29.5008 53.9074 30.5703C54.3233 29.9167 52.3032 25.2823 52.3032 25.2823Z" fill="#50D0A4"/>
<path d="M52.7192 26.1736C52.3627 27.0054 51.2932 27.5995 50.7585 27.8966C52.0062 27.7777 53.3133 27.4213 53.3133 27.4213L52.7192 26.1736Z" fill="#383838" fill-opacity="0.2"/>
<path d="M53.2539 28.8472L50.699 29.5008C50.699 29.5008 53.0162 29.382 53.9074 29.9167C54.2045 29.679 53.2539 28.8472 53.2539 28.8472Z" fill="#383838" fill-opacity="0.2"/>
<path d="M53.9668 31.8178C54.2639 31.8772 54.6204 31.8178 54.9769 31.5801C55.8681 32.2337 56.7593 31.3425 57.1158 30.5701C57.7694 30.6889 58.4229 30.3918 58.5418 29.7977C58.6012 29.6194 58.6012 29.3818 58.4823 29.1441C58.5418 29.1441 60.3242 28.1935 58.8982 26.411C59.3142 25.8763 58.8388 24.8069 58.4229 24.8663C58.8388 23.9156 57.8288 23.1432 57.2346 22.965C56.8187 22.8462 56.4028 22.9056 55.9869 23.2027C55.4522 21.7767 53.848 22.1926 53.848 23.2027C53.135 23.0244 52.2438 23.7374 52.0061 24.688C51.8873 25.2822 52.0061 26.0546 52.6597 26.7081C52.5409 26.8864 52.4815 27.124 52.4221 27.3023C52.1844 28.2529 52.422 29.3818 53.0756 29.8571C52.8974 30.986 53.3133 31.699 53.9668 31.8178Z" fill="#57E1B1"/>
</g>
<defs>
<linearGradient id="paint0_linear" x1="0" y1="0" x2="89.229" y2="8.81364" gradientUnits="userSpaceOnUse">
<stop stop-color="#5081FF" stop-opacity="0.4"/>
<stop offset="1" stop-color="#5081FF" stop-opacity="0.4"/>
</linearGradient>
</defs>
</svg>
