<svg width="82" height="82" viewBox="0 0 82 82" fill="none" xmlns="http://www.w3.org/2000/svg">
<rect width="82" height="82" rx="41" fill="url(#paint0_linear)" fill-opacity="0.4"/>
<mask id="mask0" mask-type="alpha" maskUnits="userSpaceOnUse" x="0" y="0" width="82" height="82">
<rect width="82" height="82" rx="41" fill="white"/>
</mask>
<g mask="url(#mask0)">
<path d="M52.9963 51.099C52.9963 51.099 52.7393 61.7874 52.7393 64.2026C52.7393 66.6177 53.099 71.6536 48.834 73.4008C44.6203 75.1993 38.608 77.5117 38.608 77.5117L44.2606 81.1601C44.2606 81.1601 49.9645 78.6936 52.9449 76.8437C57.1072 74.2743 56.6447 67.3371 56.6447 62.8665C56.6447 58.4473 55.8739 52.6406 55.8739 52.6406L52.9963 51.099Z" fill="#352721"/>
<path d="M52.6879 77.2014C51.4032 73.6557 45.5965 71.035 38.608 71.035C31.6194 71.035 25.8127 73.7071 24.5281 77.2014H24.2711V78.8458C24.4767 82.9567 30.7972 86.2455 38.608 86.2455C46.3673 86.2455 52.6879 82.9567 52.9448 78.8458V77.2014H52.6879Z" fill="#D3C6BC"/>
<path d="M38.608 84.8054C46.526 84.8054 52.9448 81.4004 52.9448 77.2002C52.9448 72.9999 46.526 69.595 38.608 69.595C30.6899 69.595 24.2711 72.9999 24.2711 77.2002C24.2711 81.4004 30.6899 84.8054 38.608 84.8054Z" fill="#E5DDD6"/>
<path d="M52.1226 75.3016L51.5573 71.7045H49.0908C46.5728 70.1116 42.8216 69.0838 38.6079 69.0838C34.3942 69.0838 30.643 70.1116 28.1251 71.7045H25.6585L25.0932 75.3016C24.9905 75.6613 24.9391 76.021 24.9391 76.3807C24.9391 80.3889 31.0541 83.6262 38.6079 83.6262C46.1617 83.6262 52.2767 80.3889 52.2767 76.3807C52.2767 76.021 52.2253 75.6613 52.1226 75.3016Z" fill="#352721"/>
<path d="M38.608 79.8218C45.8449 79.8218 51.7115 76.6929 51.7115 72.8332C51.7115 68.9735 45.8449 65.8446 38.608 65.8446C31.3711 65.8446 25.5044 68.9735 25.5044 72.8332C25.5044 76.6929 31.3711 79.8218 38.608 79.8218Z" fill="#13375B"/>
<path d="M55.9765 31.4695C52.996 29.7738 50.8892 29.2599 49.2962 29.671C48.8851 29.7738 48.5254 29.9279 48.1657 30.1335C47.1894 30.5959 45.8019 31.3154 45.1853 32.0348C44.7228 32.6 45.1339 33.1139 45.9047 33.5764C45.0311 36.2998 44.877 39.9997 44.62 43.3912C44.1062 50.3798 45.8019 63.0722 45.8019 63.0722L60.9096 71.8079L60.3443 72.1676L62.0915 85.374L64.3525 84.0893C64.3525 84.0893 63.7358 60.4515 64.6608 49.609C65.4316 40.0511 65.5344 37.0193 55.9765 31.4695Z" fill="#2A4280"/>
<path d="M62.0401 82.8004L43.4895 64.3013C43.4895 64.3013 41.7424 51.6088 42.3076 44.6202C42.9243 36.4498 42.9757 26.5322 53.7155 32.7499C63.2734 38.2997 63.1706 41.3315 62.3484 50.8894C61.4748 61.732 62.0401 82.8004 62.0401 82.8004Z" fill="#2950B3"/>
<path d="M44.7744 61.9401L60.2418 70.8813V71.8577L44.98 63.0192C44.9286 62.6595 44.8772 62.2998 44.7744 61.9401Z" fill="#2A4280"/>
<path d="M44.3119 59.0109L60.2931 68.2091V69.1854L44.5174 60.1414C44.4661 59.7817 44.3633 59.422 44.3119 59.0109Z" fill="#2A4280"/>
<path d="M43.8494 55.9286L60.2931 65.4351V66.4114L44.0035 57.0077C43.9521 56.648 43.9008 56.2883 43.8494 55.9286Z" fill="#2A4280"/>
<path d="M60.2927 62.866V63.8424L43.6948 54.2845L43.5406 53.2054L60.2927 62.866Z" fill="#2A4280"/>
<path d="M43.3867 50.8923C43.3867 50.7381 43.3867 50.6353 43.3867 50.4812L60.2929 60.2446V61.221L43.4895 51.5089L43.3867 50.8923Z" fill="#2A4280"/>
<path d="M43.5408 47.7079L60.2928 57.3686V58.3449L43.438 48.6328C43.4894 48.3245 43.4894 48.0162 43.5408 47.7079Z" fill="#2A4280"/>
<path d="M33.6748 24.7876C34.2914 22.7835 35.8844 21.4989 37.2204 21.91L37.8371 22.1155L37.7857 22.2183C38.762 22.9377 39.1217 24.5821 38.6079 26.2778C38.094 27.9736 36.8607 29.1555 35.6788 29.2068L35.6274 29.3096L34.8566 29.0527C33.6234 28.5388 33.0581 26.6889 33.6748 24.7876Z" fill="#352721"/>
<path d="M34.1372 24.9442C33.5206 26.9482 34.1372 28.9009 35.5247 29.312C36.9121 29.7231 38.5051 28.4385 39.0703 26.4344C39.687 24.4303 39.0703 22.4776 37.6829 22.0665C36.3468 21.7068 34.7539 22.9915 34.1372 24.9442Z" fill="#3F3028"/>
<path d="M33.9316 25.2991C33.1608 27.7657 33.9316 30.1808 35.6273 30.6947C37.3231 31.2086 39.2758 29.6156 40.0466 27.149C40.8174 24.6825 40.0466 22.2673 38.3508 21.7534C36.6551 21.291 34.7024 22.8326 33.9316 25.2991Z" fill="#5786FF"/>
<path d="M33.6235 57.2749C33.6235 57.2749 21.1879 59.4846 18.5672 60.3581C16.3062 61.0775 15.484 62.3622 14.7132 64.2635C13.6855 66.8328 13.9938 81.9794 13.9938 81.9794C13.9938 81.9794 37.4261 82.5961 41.4856 80.9517C53.0476 80.1809 52.8934 68.9786 52.0198 68.105C51.0949 67.2315 33.6235 57.2749 33.6235 57.2749Z" fill="#13375B"/>
<path d="M39.7383 34.0363C39.7383 34.0363 37.9398 31.5183 35.0622 34.2418C33.0067 36.1945 29.9749 41.3846 29.3583 43.44C28.8958 43.6971 27.8681 42.5151 27.8681 44.5191C27.0459 45.4957 27.3542 45.701 27.0459 46.2149C26.1723 47.5509 27.3542 52.4327 30.1291 53.1007C31.5679 53.1007 35.576 50.6855 37.1176 47.5509C39.7897 42.104 39.7383 34.0363 39.7383 34.0363Z" fill="#D83C49"/>
<path d="M38.2483 34.8576C38.9163 35.1146 39.2246 35.7826 39.2246 35.7826L46.9326 35.9368C46.9326 35.9368 53.2018 37.2214 54.692 42.1031C54.7947 43.6447 54.6406 47.1904 54.3836 48.7834C54.1781 48.9375 52.6879 48.6806 52.5851 48.9889C50.6324 54.6928 51.7629 62.1953 52.174 67.9506C45.1341 73.0378 35.1137 68.5158 31.9791 64.6104C33.6235 53.3054 29.307 42.9767 38.2483 34.8576Z" fill="#F54554"/>
<path d="M40.0983 34.6533L45.9563 30.3882L47.1896 37.274C47.1896 37.274 46.0077 38.7128 44.2606 39.6378C42.7704 40.4086 41.2801 40.203 39.6872 40.7169C39.0191 39.535 39.6872 38.0448 39.6872 38.0448L40.0983 34.6533Z" fill="#F47458"/>
<path d="M38.5565 34.5515C38.5565 34.5515 37.2719 35.7334 36.6552 36.4528C36.0386 37.2236 36.0386 38.0972 35.6275 38.8166C35.2164 39.536 35.0623 39.7416 35.0623 39.7416C35.0623 39.7416 36.0386 39.8957 36.3469 39.4846C36.6552 39.0735 36.9122 38.868 37.2719 39.0221C37.6316 39.2277 37.8885 40.1526 38.0941 40.6665C38.2996 41.1804 39.019 41.7456 39.019 41.7456L40.0981 40.3068C40.0981 40.3068 39.3273 39.2791 39.6357 38.5597C39.944 37.8403 40.0467 35.3223 40.0467 35.3223L38.5565 34.5515Z" fill="white"/>
<path d="M46.6242 22.8347C47.9088 24.4791 48.3199 28.6414 46.5214 31.5191C44.9284 34.0884 41.3314 35.5786 39.7384 35.8355C36.8607 36.298 33.7775 28.3845 37.0663 23.5541C40.1495 18.9294 44.9798 20.7279 46.6242 22.8347Z" fill="#F7A491"/>
<path d="M43.9008 19.3394C45.5452 19.5964 46.7784 20.6241 47.652 21.8574C50.581 22.474 50.2727 26.6877 49.5533 28.2807C48.1659 31.3639 46.5729 31.5694 46.5729 31.5694C46.5729 31.5694 46.984 29.8737 46.6243 29.1543C46.316 28.5376 45.2882 28.4349 44.9799 29.514C44.6202 29.6168 44.1577 29.6168 44.1577 29.6168L44.5174 27.4071C44.5174 27.4071 42.8217 28.2807 40.9204 27.1502C39.1218 26.1225 37.4261 26.7391 36.8094 27.3044C36.4497 26.3794 36.4497 25.8141 36.5011 25.0434C35.3706 24.2212 34.2915 23.5531 34.4457 22.9879C35.3192 23.2448 36.2956 23.2448 37.1691 22.731C36.4497 22.1657 36.09 21.6518 35.6789 21.0352C37.6316 21.2921 41.9481 19.0311 43.9008 19.3394Z" fill="#13375B"/>
<path d="M46.5728 33.7766C46.5728 33.7766 47.0866 34.753 45.5964 36.2946C44.7228 37.2195 41.948 38.0931 41.1772 38.5556C40.5091 38.9667 39.7383 39.8916 39.7383 39.8916C39.7383 39.8916 39.4814 40.3541 39.2759 41.0221C39.1217 41.7415 39.1217 41.7415 39.1217 41.7415C39.1217 41.7415 39.7897 41.1249 40.6119 40.868C41.4341 40.5596 41.3313 41.3818 41.6396 42.2554C41.8966 42.9748 42.8729 43.0262 42.8729 43.0262C42.8729 43.0262 43.0271 41.7415 43.1812 41.4846C43.6437 40.7138 45.9561 40.3027 46.8811 39.5319C48.1143 38.5042 48.731 36.8084 48.2685 35.8321C47.806 34.9071 47.0866 33.7766 46.5728 33.7766Z" fill="white"/>
<path d="M42.5132 28.7965C41.7424 31.2631 42.5132 33.6782 44.209 34.1921C45.9047 34.706 47.8574 33.113 48.6282 30.6464C49.399 28.1799 48.6282 25.7647 46.9325 25.2508C45.2367 24.737 43.284 26.33 42.5132 28.7965Z" fill="#5786FF"/>
<path d="M43.541 29.0529C42.8729 31.2625 43.541 33.4207 45.0826 33.8832C46.5728 34.3457 48.3713 32.9069 49.0393 30.7486C49.7074 28.539 49.0393 26.3808 47.4977 25.9183C46.0075 25.4558 44.209 26.8433 43.541 29.0529Z" fill="white"/>
<path d="M44.1061 29.3073C44.7227 27.3033 46.3157 26.0186 47.6517 26.4297L48.2684 26.6352L48.217 26.738C49.1933 27.4574 49.553 29.1018 49.0392 30.7976C48.5253 32.4933 47.292 33.6752 46.1101 33.7266L46.0588 33.8294L45.288 33.5724C44.0547 33.0072 43.5408 31.1573 44.1061 29.3073Z" fill="#352721"/>
<path d="M44.5689 29.4124C43.9522 31.4165 44.5689 33.3692 45.9563 33.7803C47.3437 34.1914 48.9367 32.9067 49.502 30.9026C50.1186 28.8986 49.502 26.9459 48.1145 26.5348C46.7785 26.1751 45.1855 27.4597 44.5689 29.4124Z" fill="#2A4280"/>
<path d="M37.1177 19.905C37.5287 18.3634 39.019 17.7981 42.2049 18.1064C45.2367 18.3634 48.3713 20.2133 48.4227 21.3438C48.4741 22.166 48.2685 24.8895 48.2171 26.2769C47.9602 25.9172 47.6519 25.7117 47.2408 25.6089C46.8811 25.5061 45.802 25.4547 45.3395 25.7117C45.5964 23.759 45.7506 22.4743 45.6478 21.7549C45.4937 20.7272 43.4382 20.2647 41.9994 20.0078C38.9162 19.4425 39.3273 19.905 39.0703 20.3675C38.5565 20.5216 37.6315 20.9841 36.9121 20.9327C36.9635 20.573 37.0663 20.2133 37.1177 19.905Z" fill="#5786FF"/>
<path d="M26.1211 73.6554L32.0305 77.0469L42.8217 70.8291L36.9123 67.3862L26.1211 73.6554Z" fill="white"/>
<path d="M26.1211 73.6552L32.0305 77.0981L33.2124 76.43L27.2516 72.9872L26.1211 73.6552Z" fill="#3F3028"/>
<path d="M36.2955 67.7431L42.2564 71.186L42.3078 71.1346L36.3983 67.6917L36.2955 67.7431Z" fill="#E4E9F9"/>
<path d="M35.4734 68.2042L41.4342 71.6471L41.537 71.5957L35.5762 68.1528L35.4734 68.2042Z" fill="#E4E9F9"/>
<path d="M34.7024 68.6688L40.6118 72.1117L40.7146 72.0603L34.7538 68.6688H34.7024Z" fill="#E4E9F9"/>
<path d="M33.8804 69.1832L39.7898 72.5747L39.8926 72.5233L33.9318 69.1318L33.8804 69.1832Z" fill="#E4E9F9"/>
<path d="M33.0581 69.6443L39.0189 73.0358H39.0703L33.1609 69.5929L33.0581 69.6443Z" fill="#E4E9F9"/>
<path d="M32.2361 70.1054L38.1969 73.5483L38.2483 73.4969L32.3389 70.054L32.2361 70.1054Z" fill="#E4E9F9"/>
<path d="M31.4138 70.5713L37.3747 74.0142L37.4774 73.9628L31.5166 70.5199L31.4138 70.5713Z" fill="#E4E9F9"/>
<path d="M30.6431 71.0324L36.5525 74.4753L36.6553 74.4239L30.6945 70.981L30.6431 71.0324Z" fill="#E4E9F9"/>
<path d="M29.8208 71.4935L35.7303 74.9364L35.833 74.885L29.8722 71.4421L29.8208 71.4935Z" fill="#E4E9F9"/>
<path d="M28.9985 71.9546L34.9594 75.3975L35.0108 75.3461L29.1013 71.9032L28.9985 71.9546Z" fill="#E4E9F9"/>
<path d="M28.1764 72.4214L34.1372 75.8643L34.1886 75.8129L28.2792 72.3701L28.1764 72.4214Z" fill="#E4E9F9"/>
<path d="M32.0305 78.1792L42.8217 71.91V70.8309L32.0305 77.0487V78.1792Z" fill="#E5DDD6"/>
<path d="M32.0305 78.1772L26.1211 74.7343V73.6552L32.0305 77.0467V78.1772Z" fill="#3F3028"/>
<path d="M32.0305 78.1764L32.1333 78.0736V76.9945L32.0305 77.0459V78.1764Z" fill="#3F3028"/>
<path d="M51.095 37.8892C49.7075 38.917 48.7312 42.6682 48.7312 44.107C48.6798 46.8305 48.8854 49.1429 48.6284 49.6567C48.3715 50.1706 48.0632 51.3525 48.6798 52.3288C48.9367 52.7399 48.834 53.5107 48.4229 53.9218C47.4465 54.8982 47.3438 55.412 47.8062 56.5939C47.3438 56.7995 51.7116 61.784 52.8421 61.2187C57.7238 58.7008 57.0044 52.9455 57.2614 50.8386C57.5697 48.0638 56.5933 43.1306 55.4114 40.7155C54.6406 39.2253 51.9685 37.2726 51.095 37.8892Z" fill="#D83C49"/>
<path d="M49.245 55.9253C47.5493 56.8503 41.5884 62.4514 40.0468 63.5819C38.5052 64.7638 36.1415 65.7915 34.6513 68.0525C33.161 70.3649 32.1333 71.8037 32.1847 73.2939C32.1847 74.7842 34.0346 74.9897 35.7304 74.1675C37.4261 73.3453 39.7899 69.6969 41.2801 68.0011C41.9995 67.2303 46.2646 64.9693 49.0395 63.4277C52.2768 61.6806 53.1504 60.4987 53.1504 60.4987C53.1504 60.4987 52.9449 56.9016 49.245 55.9253Z" fill="#F7A491"/>
<path d="M46.8816 57.6743C46.8816 57.6743 47.2927 56.5951 48.1149 55.9785C48.8857 55.3619 49.2968 55.4132 49.2968 55.4132C49.2968 55.4132 51.0439 55.5674 52.3286 57.4173C53.6132 59.2672 53.5618 60.7574 53.5618 60.7574C53.5618 60.7574 52.9452 61.7852 52.0202 62.2477C51.3522 62.6074 50.787 62.4018 50.787 62.4018C50.787 62.4018 51.6092 61.5796 50.0676 59.4214C48.526 57.2632 46.8816 57.6743 46.8816 57.6743Z" fill="white"/>
<path d="M26.7892 45.4946C25.3504 43.6961 23.1922 41.3323 21.4964 39.0199C19.8007 36.7075 18.9785 36.245 18.0021 34.2923C16.6661 31.723 15.8439 30.6439 15.6897 31.5689C15.4842 32.4938 15.8953 32.9049 16.1522 33.7785C16.4092 34.652 16.9744 35.6798 16.9744 35.6798C16.9744 35.6798 15.4842 36.7075 15.0217 37.7866C14.5079 38.8144 15.2787 39.8421 16.2036 40.5615C17.1286 41.2809 18.4646 40.9212 19.0299 41.5378C20.0576 42.7197 20.9826 46.5223 23.0894 49.2458C25.1963 51.9693 26.0698 52.1749 27.3031 52.7915C28.6905 53.5109 29.41 52.7915 29.9238 52.0721C30.2321 51.661 29.9238 50.993 29.8724 50.3249C29.6155 48.5778 27.3545 46.214 26.7892 45.4946Z" fill="#F7A491"/>
<path d="M27.7654 45.3904L26.9432 45.6473C26.9432 45.6473 28.1765 46.8292 28.2279 49.0902C28.2279 50.3235 26.9432 52.6359 26.9432 52.6359C26.9432 52.6359 27.9196 53.8692 28.9987 53.6123C30.0778 53.3553 30.6431 52.379 30.5917 50.4777C30.5403 48.6278 29.4098 46.2126 27.7654 45.3904Z" fill="white"/>
<path d="M47.7548 78.0241C47.1382 78.6407 45.0827 79.8226 43.7981 80.2337C39.8927 81.5698 35.1138 81.467 32.4417 80.0282C29.0501 78.1782 18.927 72.5771 19.6978 56.5445C19.852 52.9988 22.5241 50.0184 22.5754 50.0184L22.3185 49.8643C22.3185 49.9156 19.595 52.2794 19.3895 56.4931C18.5673 72.834 28.7418 78.3838 32.2875 80.2851C33.7263 81.0559 35.7304 81.467 37.94 81.467C39.8927 81.467 41.9995 81.1587 43.9009 80.4906C45.2883 80.0282 47.5493 78.8463 48.1659 78.1269C48.0118 78.1269 48.1659 77.7672 47.7548 78.0241Z" fill="#352721"/>
<path d="M26.2238 61.2712C27.9196 61.2712 29.3584 61.9906 29.3584 62.9156C29.3584 63.8405 27.971 64.5599 26.2238 64.5599C24.4767 64.5599 23.0892 63.8405 23.0892 62.9156C23.0892 62.042 24.4767 61.2712 26.2238 61.2712Z" fill="#3F3028"/>
<path d="M26.2238 61.2712C27.3029 61.2712 28.1765 61.7337 28.1765 62.2989C28.1765 62.8642 27.3029 63.3267 26.2238 63.3267C25.1447 63.3267 24.2711 62.8642 24.2711 62.2989C24.2711 61.7337 25.1447 61.2712 26.2238 61.2712Z" fill="#4F433F"/>
<path d="M25.3505 60.5483V62.1926C25.3505 62.4496 25.7616 62.6551 26.224 62.6551C26.6865 62.6551 27.0976 62.4496 27.0976 62.1926V60.5483H25.3505Z" fill="#352721"/>
<path d="M26.224 60.0881C26.6865 60.0881 27.0976 60.2937 27.0976 60.5506C27.0976 60.8075 26.6865 61.0131 26.224 61.0131C25.7616 61.0131 25.3505 60.8075 25.3505 60.5506C25.3505 60.2937 25.7102 60.0881 26.224 60.0881Z" fill="#3F3028"/>
<path d="M25.8129 45.34V60.499C25.8129 60.6018 25.967 60.7045 26.224 60.7045C26.4295 60.7045 26.6351 60.6018 26.6351 60.499V45.34H25.8129Z" fill="white"/>
<path d="M25.3505 46.523V49.5034C25.3505 49.7604 25.7616 49.9659 26.224 49.9659C26.6865 49.9659 27.0976 49.7604 27.0976 49.5034V46.523H25.3505Z" fill="#3F3028"/>
<path d="M25.3505 45.7019V48.6823C25.3505 48.9393 25.7616 49.1448 26.224 49.1448C26.6865 49.1448 27.0976 48.9393 27.0976 48.6823V45.7019H25.3505Z" fill="white"/>
<path d="M26.224 45.237C26.6865 45.237 27.0976 45.4425 27.0976 45.6994C27.0976 45.9564 26.6865 46.1619 26.224 46.1619C25.7616 46.1619 25.3505 45.9564 25.3505 45.6994C25.3505 45.4425 25.7102 45.237 26.224 45.237Z" fill="#352721"/>
<path d="M32.4418 36.2448C33.5723 37.067 33.8806 38.66 33.0584 39.7905L31.1571 42.5139C30.3349 43.6444 28.7419 43.9528 27.6114 43.1306C26.4809 42.3084 26.1726 40.7154 26.9948 39.5849L28.8961 36.8614C29.7183 35.7309 31.3113 35.4226 32.4418 36.2448Z" fill="#352721"/>
<path d="M28.5877 41.5365C27.971 41.0227 27.2002 41.0227 26.8405 41.4338L26.4808 41.9476C26.8405 41.5365 27.6113 41.5879 28.228 42.0504C28.8446 42.5643 29.0502 43.2837 28.6905 43.7461L29.0502 43.2323C29.4099 42.7698 29.2043 42.0504 28.5877 41.5365Z" fill="#2A4280"/>
<path d="M28.228 42.0467C27.6113 41.5329 26.8405 41.5329 26.4808 41.9439L23.9115 45.5924L26.1211 47.3909L28.6904 43.7425C29.0502 43.28 28.8446 42.5606 28.228 42.0467Z" fill="#3F3028"/>
<path d="M26.3781 44.6708C25.7614 44.1569 24.9907 44.1569 24.6309 44.568L24.2712 45.0819C24.6309 44.6708 25.4017 44.7222 26.0184 45.1847C26.635 45.6985 26.8406 46.4179 26.4809 46.8804L26.8406 46.3666C27.2003 45.9041 26.9947 45.1333 26.3781 44.6708Z" fill="white"/>
<path d="M23.9115 45.5947C23.5518 46.0571 23.7573 46.7766 24.374 47.2904C24.9906 47.8043 25.7614 47.8043 26.1211 47.3932C26.4808 46.9307 26.2753 46.2113 25.6586 45.6974C25.042 45.235 24.2712 45.1836 23.9115 45.5947Z" fill="#352721"/>
<path d="M25.042 46.5224C24.7337 46.2655 24.374 46.2655 24.1685 46.4711L22.8838 48.321L24.0143 49.1945L25.299 47.396C25.4531 47.1391 25.299 46.728 25.042 46.5224Z" fill="white"/>
<path d="M23.7059 48.3197C23.3976 48.0627 22.9865 48.0627 22.8323 48.2683C22.8323 48.3197 22.0615 49.6557 22.0615 49.6557L22.7809 50.221C22.7809 50.221 23.9628 49.1932 23.9628 49.1418C24.117 48.9363 24.0142 48.5766 23.7059 48.3197Z" fill="#3F3028"/>
<path d="M22.0616 49.6551C21.9589 49.8092 22.0103 50.0148 22.2158 50.1689C22.4213 50.3231 22.6783 50.3231 22.7811 50.2203C22.8838 50.0662 22.8324 49.8606 22.6269 49.7064C22.4213 49.5523 22.1644 49.5009 22.0616 49.6551Z" fill="#352721"/>
<path d="M26.635 43.3877C26.3781 43.7474 25.967 43.8502 25.7101 43.6961C25.5045 43.5419 25.5559 43.0794 25.8129 42.7711C26.0698 42.4114 26.4809 42.3086 26.7378 42.4628C26.9947 42.6169 26.9434 43.0794 26.635 43.3877Z" fill="white"/>
<path d="M26.5322 43.2822C26.2752 43.5905 25.9669 43.6933 25.7614 43.5391C25.5558 43.385 25.6072 43.0253 25.8641 42.7683C26.1211 42.46 26.4294 42.3572 26.6349 42.5114C26.7891 42.6656 26.7377 43.0253 26.5322 43.2822Z" fill="#2A4280"/>
<path d="M36.8094 79.8164L36.5011 81.0497C36.4497 81.2039 36.6553 81.358 36.9122 81.4094C37.1691 81.4608 37.4261 81.4094 37.4261 81.2553L37.7344 80.022L36.8094 79.8164Z" fill="#352721"/>
<path d="M37.7343 80.025C37.6829 80.1792 37.4773 80.2306 37.2204 80.1792C36.9635 80.1278 36.7579 79.9736 36.8093 79.8195C36.8607 79.6653 37.0663 79.6139 37.3232 79.6653C37.5801 79.7167 37.7857 79.8709 37.7343 80.025Z" fill="#635956"/>
<path d="M31.0027 80.1821L30.0778 80.4904L30.4375 81.6723C30.4889 81.8265 30.6944 81.8265 30.9513 81.7751C31.2083 81.6723 31.3624 81.5182 31.311 81.364L31.0027 80.1821Z" fill="#352721"/>
<path d="M31.0087 80.1805C31.06 80.3346 30.9059 80.4888 30.649 80.5916C30.392 80.6943 30.1351 80.643 30.1351 80.4888C30.0837 80.3346 30.2379 80.1805 30.4948 80.0777C30.7517 80.0263 30.9573 80.0777 31.0087 80.1805Z" fill="#635956"/>
<path d="M55.9361 79.2874C59.9442 79.2874 63.1816 81.0345 63.1816 83.1413C63.1816 85.2482 59.9442 86.9953 55.9361 86.9953C51.9279 86.9953 48.6906 85.2482 48.6906 83.1413C48.6906 80.9831 51.9279 79.2874 55.9361 79.2874Z" fill="#57E1B1"/>
<path d="M55.9359 79.5954C59.6357 79.5954 62.6675 81.1884 62.6675 83.0897C62.6675 83.2438 62.6675 83.4494 62.6161 83.6036C62.1536 81.9078 59.3274 80.6231 55.9359 80.6231C52.5444 80.6231 49.7695 81.9078 49.2556 83.6036C49.2042 83.4494 49.2042 83.2438 49.2042 83.0897C49.2042 81.1884 52.236 79.5954 55.9359 79.5954Z" fill="#57E1B1"/>
<path d="M55.9359 80.6237C59.3274 80.6237 62.1536 81.9084 62.6161 83.6042C62.1536 85.2999 59.3274 86.5846 55.9359 86.5846C52.5444 86.5846 49.7695 85.2999 49.2556 83.6042C49.7695 81.9598 52.5444 80.6237 55.9359 80.6237Z" fill="#57E1B1"/>
<path d="M59.5843 73.3774C60.1495 73.6343 60.5606 74.3538 60.5606 74.3538C60.5606 74.3538 59.2246 77.0772 58.7107 78.4133C58.1968 79.7493 57.2719 83.6033 57.2719 83.6033L55.9872 83.7061C55.9872 83.7061 54.7025 76.6148 56.758 74.3024C57.5802 73.3774 58.4024 72.8635 59.5843 73.3774Z" fill="#57E1B1"/>
<path d="M55.1138 76.2047C55.7304 77.0783 56.6554 83.1419 56.6554 83.1419L54.4972 82.9364L51.7737 75.5881C51.7737 75.5881 53.007 73.1729 55.1138 76.2047Z" fill="#57E1B1"/>
<path d="M62.7707 74.7677C65.5455 73.1747 69.4509 73.9455 69.4509 73.9455C69.4509 73.9455 66.0594 75.4357 64.5692 76.5149C61.0749 79.0842 57.7862 84.4284 57.7862 84.4284L55.5765 84.3256C55.6279 84.3256 58.968 76.9259 62.7707 74.7677Z" fill="#57E1B1"/>
<path d="M63.1303 76.6698C66.1107 74.1005 69.4509 73.9977 69.4509 73.9977C69.4509 73.9977 66.2649 75.231 64.158 77.1323C62.0512 79.0336 58.6597 83.9153 58.6597 83.9153L57.632 83.8126C57.632 83.7612 60.0985 79.1878 63.1303 76.6698Z" fill="#57E1B1"/>
<path d="M49.2558 73.5851C50.5918 73.8934 51.5168 74.3559 53.6236 76.9766C55.6277 79.4945 56.2957 84.5818 56.2957 84.5818L55.936 85.0956L54.0861 84.7359L53.6236 82.6805C53.6236 82.6805 52.3389 78.621 50.3863 76.4113C48.228 74.0476 45.6587 73.7906 45.6587 73.7906C45.6587 73.7906 46.4809 72.9684 49.2558 73.5851Z" fill="#57E1B1"/>
<path d="M68.0118 78.106C70.5811 78.774 71.9172 81.2406 71.9172 81.2406C71.9172 81.2406 66.0591 79.4934 64.312 79.5448C62.5648 79.5962 58.7622 82.6794 58.7622 82.6794C58.7622 82.6794 58.7622 82.6794 60.201 80.367C61.5885 78.0546 65.4425 77.438 68.0118 78.106Z" fill="#57E1B1"/>
<path d="M66.0592 78.1035C66.0592 78.6174 65.8023 79.234 65.8023 79.234C65.8023 79.234 67.087 78.4118 67.7036 78.2577C67.4467 78.8743 66.7787 79.4396 66.7787 79.4396C66.7787 79.4396 67.2411 79.3882 68.1147 79.2854C68.7827 79.1826 68.9369 79.1312 69.7591 79.4396C68.9883 79.6451 67.755 79.8507 67.755 79.8507L65.1343 79.4396C65.1343 79.4396 65.6995 78.2577 66.0592 78.1035Z" fill="#57E1B1"/>
<path d="M61.9998 79.3374C65.9051 77.8986 71.9174 81.2388 71.9174 81.2388C71.9174 81.2388 70.6327 80.879 68.9883 80.5707C67.4981 80.0055 64.9802 79.1833 63.4386 79.5944C61.1776 80.211 59.5846 82.0609 58.4541 83.6025C58.043 84.1678 57.5805 84.733 57.2208 85.1955C56.5528 85.1955 55.9362 85.0927 55.9362 85.0927C55.9362 85.0927 58.043 80.7249 61.9998 79.3374Z" fill="#57E1B1"/>
<path d="M63.4897 79.5968C64.9799 79.1857 67.4979 80.0079 69.0395 80.5731C67.5493 80.3162 65.7507 80.0593 64.3119 80.2134C61.2801 80.4704 60.2524 83.8105 58.7622 84.8382C58.2997 85.1465 57.7344 85.2493 57.2206 85.2493C57.6317 84.7868 57.8372 84.0674 58.2483 83.4508C59.3788 81.8578 61.2287 80.2134 63.4897 79.5968Z" fill="#57E1B1"/>
<path d="M45.9671 78.4113C48.485 77.9488 51.1571 80.0557 51.1571 80.0557C51.1571 80.0557 46.4296 79.5932 42.6783 83.0875C43.0894 80.9806 43.4491 78.8738 45.9671 78.4113Z" fill="#57E1B1"/>
<path d="M46.3782 79.594C48.4336 79.0802 51.6196 78.8746 53.4695 81.4953C54.3945 82.8314 55.4222 84.7841 55.4222 84.7841C55.4222 84.7841 54.9597 84.8868 54.3945 84.9382C54.2917 84.6813 54.1889 84.373 54.0862 84.0133C53.4181 82.2661 51.5168 81.0328 49.3072 80.5704C46.7893 80.0565 45.3504 81.0329 44.6824 81.7009C43.3464 82.3175 42.6783 83.0369 42.6783 83.0369C42.6783 83.0369 43.8602 80.2621 46.3782 79.594Z" fill="#57E1B1"/>
<path d="M49.2559 80.621C51.4655 81.0835 53.3668 82.3167 54.0348 84.0639C54.189 84.4236 54.2918 84.6805 54.3432 84.9888C53.6237 84.9888 52.6474 84.8861 52.0308 84.0639C52.0308 84.0639 50.6947 81.0321 48.0226 81.0321C46.5838 81.0321 45.4533 81.3918 44.5797 81.7515C45.3505 81.0835 46.7379 80.1071 49.2559 80.621Z" fill="#57E1B1"/>
<path d="M54.2476 72.1451C56.56 76.0505 56.5086 84.4265 56.5086 84.4265C56.5086 84.4265 55.8919 84.7348 55.6864 84.5807C55.6864 84.5293 55.6864 84.4265 55.635 84.3751C54.8642 78.9795 53.0657 74.252 52.0893 72.5048C50.3936 69.6272 49.3145 67.9314 49.3145 67.9314C49.3145 67.9314 52.3976 69.0105 54.2476 72.1451Z" fill="#57E1B1"/>
<path d="M52.5959 71.4782C53.1612 72.7629 52.5959 73.9448 52.5959 73.9448L51.9279 73.3795C51.9279 73.3795 51.7224 73.1226 51.7737 72.0435C51.8251 71.0157 51.1571 69.5769 51.1571 69.5769C51.1571 69.5769 52.0307 70.1935 52.5959 71.4782Z" fill="#57E1B1"/>
<path d="M53.3664 71.9911C53.3664 71.9911 54.3942 72.8647 54.3942 74.7146C54.3942 76.2562 53.6234 77.0784 53.6234 77.0784L53.0067 76.3076C53.0067 76.3076 53.4178 75.8965 53.6234 74.7146C53.8803 73.3786 53.3664 71.9911 53.3664 71.9911Z" fill="#57E1B1"/>
<path d="M55.1138 79.0311C54.5999 80.213 54.2402 80.4699 54.2402 80.4699L54.0347 79.4936C54.0347 79.4936 55.1138 78.2089 55.1652 76.1535C55.1138 76.2049 55.6277 77.8492 55.1138 79.0311Z" fill="#57E1B1"/>
<path d="M55.6275 84.3751L55.2164 84.4265C55.2164 84.4265 53.2638 78.0546 52.8527 76.9755C52.2874 75.4339 51.0028 72.9673 50.3861 71.2716C49.7695 69.5758 49.2556 67.9314 49.2556 67.9314C49.2556 67.9314 50.3861 69.6272 52.0305 72.5048C53.0582 74.252 54.8567 78.9795 55.6275 84.3751Z" fill="#57E1B1"/>
<path d="M64.3121 79.4427C65.494 80.1107 65.7509 82.1661 65.7509 82.1661C65.7509 82.1661 63.901 80.7787 62.8733 80.3162C61.8456 79.8024 60.304 80.1107 60.304 80.1107C60.304 80.1107 62.3594 78.3635 64.3121 79.4427Z" fill="#57E1B1"/>
<path d="M64.4666 80.1592C62.8736 80.1592 62.5652 80.6217 62.5652 80.6217L61.9486 80.4161C61.9486 80.4161 62.3597 80.0564 63.0277 79.8509C63.6444 79.6967 64.4666 80.1592 64.4666 80.1592Z" fill="#57E1B1"/>
<path d="M62.6679 79.4918C62.6679 79.4918 61.5887 80.2112 61.0235 80.3654C60.4582 80.5196 60.3041 80.2626 60.3041 80.2626C60.3041 80.2626 61.6401 79.3891 62.6679 79.4918Z" fill="#57E1B1"/>
<path d="M61.0234 79.854C62.8733 79.9567 64.7232 81.19 65.6996 82.2177C65.6996 82.2177 64.826 82.0122 63.8496 81.8066C63.2844 81.4983 61.9483 80.8817 60.7665 81.2414C59.2249 81.7039 58.043 82.4233 57.5805 84.3246C57.5291 84.4787 57.5291 84.6329 57.5291 84.7357L56.8097 84.8384C56.8097 84.8384 57.0152 81.7553 58.3513 80.7789C59.7387 79.6998 60.8178 79.854 61.0234 79.854Z" fill="#57E1B1"/>
<path d="M60.7665 81.1888C61.9484 80.8291 63.2845 81.4458 63.8497 81.7541C63.3359 81.6513 62.8734 81.5485 62.4623 81.4971C62.3081 81.4971 60.4582 81.2402 58.968 82.7304C58.4027 83.2957 57.7861 84.6831 57.7861 84.6831H57.5806C57.5806 84.529 57.5806 84.4262 57.632 84.272C58.0944 82.3193 59.2763 81.6513 60.7665 81.1888Z" fill="#57E1B1"/>
<path d="M64.6205 70.4473L58.4541 75.2777C58.4541 75.2777 58.711 72.5028 60.4068 71.064C62.3081 69.471 64.6205 70.4473 64.6205 70.4473Z" fill="#57E1B1"/>
<path d="M59.6873 72.4529C61.7428 70.1919 64.6204 70.4488 64.6204 70.4488C64.6204 70.4488 61.8969 72.3501 60.5609 74.7653C59.2248 77.2318 57.2208 84.2204 57.2208 84.2204L56.6555 84.5801C56.6555 84.5801 57.0152 81.1886 57.2208 79.1845C57.3749 77.2318 58.1971 74.0973 59.6873 72.4529Z" fill="#57E1B1"/>
</g>
<defs>
<linearGradient id="paint0_linear" x1="0" y1="0" x2="89.229" y2="8.81364" gradientUnits="userSpaceOnUse">
<stop stop-color="#5081FF" stop-opacity="0.4"/>
<stop offset="1" stop-color="#5081FF" stop-opacity="0.4"/>
</linearGradient>
</defs>
</svg>
