<svg width="82" height="82" viewBox="0 0 82 82" fill="none" xmlns="http://www.w3.org/2000/svg">
<rect width="82" height="82" rx="41" fill="url(#paint0_linear)" fill-opacity="0.4"/>
<mask id="mask0" mask-type="alpha" maskUnits="userSpaceOnUse" x="0" y="0" width="82" height="82">
<rect width="82" height="82" rx="41" fill="white"/>
</mask>
<g mask="url(#mask0)">
<path d="M33.1882 20.79C33.1882 20.79 30.1858 22.0287 28.5151 24.7144C26.8444 27.4 26.5054 31.1161 26.5054 31.1161L31.6506 31.16C31.6385 31.16 28.5029 27.6302 33.1882 20.79Z" fill="#FFF3D9"/>
<path d="M33.9133 22.4177L32.9237 20.1701L30.4279 19.6741C30.142 19.6213 30.054 19.2731 30.2739 19.0937L32.1981 17.4898L31.9122 15.0628C31.8792 14.7885 32.1871 14.5985 32.44 14.7357L34.617 16.002L36.9369 14.9889C37.2008 14.8729 37.4867 15.0945 37.4207 15.3688L36.849 17.7536L38.5642 19.558C38.7621 19.7585 38.6192 20.0962 38.3333 20.1173L35.7934 20.3283L34.54 22.4493C34.3971 22.692 34.0232 22.6709 33.9133 22.4177Z" fill="#FED333"/>
<path d="M40.6551 0.660004L38.6647 1.89229L39.7774 3.68367L37.8612 4.98442L38.7018 6.82144L37.4409 8.00809L38.0961 8.59L39.7774 7.004L38.9862 5.26967L40.9765 3.92328L39.8763 2.15472L41.6936 1.03654L40.6551 0.660004Z" fill="#F54554"/>
<path d="M52.3227 9.72574L50.3363 9.2L49.7129 10.9289L47.7372 10.4941L46.9236 12.0815L45.381 11.9905L45.3387 12.7387L47.3885 12.86L48.1598 11.3535L50.2201 11.8085L50.8329 10.0998L52.6291 10.575L52.3227 9.72574Z" fill="#F54554"/>
<path d="M28.3279 12.6951L27.5807 10.7996L25.7601 11.3756L24.9392 9.53249L23.129 9.86759L22.2976 8.59L21.6451 9.01935L22.7712 10.7263L24.4761 10.4017L25.3286 12.3181L27.1177 11.7526L27.8017 13.47L28.3279 12.6951Z" fill="#F54554"/>
<path d="M44.6324 18.96L45.4449 20.4394L47.2016 20.343L47.9921 22.069L49.8366 21.4043L50.8138 23.3233L52.5815 22.9052L53.8441 24.599L53.1854 25.06L52.2411 23.795L50.3746 24.2345L49.4304 22.3906L47.5639 23.066L46.6965 21.1684L44.9837 21.2542L44.2262 19.882L43.1172 20.1714L42.9086 19.4103L44.6324 18.96Z" fill="#F54554"/>
<path d="M24.6708 24.2327L23.2559 24.3406L22.7643 22.65L20.6779 22.614L20.0424 21.4L19.215 21.6428L20.0664 23.2705L22.0448 23.2974L22.5484 25.06L24.6828 24.8981L24.6708 24.2327Z" fill="#57E1B1"/>
<rect x="18" y="34" width="48" height="11" rx="5.5" fill="white"/>
<path d="M25.1522 35.5185C27.282 36.133 28.5182 38.3697 27.894 40.5204C27.282 42.6588 25.0543 43.9001 22.9123 43.2733C20.7826 42.6588 19.5463 40.4221 20.1706 38.2714C20.7948 36.133 23.0225 34.904 25.1522 35.5185Z" fill="#FFF3D9"/>
<path d="M26.6455 38.5543L25.3725 39.8202L25.6908 41.5899C25.7152 41.7373 25.5684 41.848 25.4337 41.7742L23.8425 40.9508L22.2636 41.7988C22.1412 41.8725 21.9821 41.7619 22.0065 41.6144L22.2881 39.8447L20.9906 38.6035C20.8805 38.5052 20.9417 38.3208 21.0886 38.3085L22.8633 38.0381L23.6467 36.4159C23.7079 36.2807 23.8915 36.2807 23.9649 36.4159L24.7728 38.0259L26.5475 38.2716C26.6822 38.2716 26.7434 38.4437 26.6455 38.5543Z" fill="#FED333"/>
<rect x="12" y="47" width="48" height="12" rx="6" fill="white"/>
<path d="M19.1522 48.9385C21.282 49.5529 22.5182 51.7897 21.894 53.9404C21.282 56.0788 19.0543 57.32 16.9123 56.6933C14.7826 56.0788 13.5463 53.8421 14.1706 51.6914C14.7948 49.5529 17.0225 48.324 19.1522 48.9385Z" fill="#FFF3D9"/>
<path d="M20.6455 51.9743L19.3725 53.2401L19.6908 55.0098C19.7152 55.1573 19.5684 55.2679 19.4337 55.1942L17.8425 54.3708L16.2636 55.2188C16.1412 55.2925 15.9821 55.1819 16.0065 55.0344L16.2881 53.2647L14.9906 52.0234C14.8805 51.9251 14.9417 51.7408 15.0886 51.7285L16.8633 51.4581L17.6467 49.8359C17.7079 49.7007 17.8915 49.7007 17.9649 49.8359L18.7728 51.4458L20.5475 51.6916C20.6822 51.6916 20.7434 51.8637 20.6455 51.9743Z" fill="#FED333"/>
<rect x="18" y="61" width="48" height="12" rx="6" fill="white"/>
<path d="M25.1522 62.9385C27.282 63.5529 28.5182 65.7897 27.894 67.9404C27.282 70.0788 25.0543 71.32 22.9123 70.6933C20.7826 70.0788 19.5463 67.8421 20.1706 65.6914C20.7948 63.5529 23.0225 62.324 25.1522 62.9385Z" fill="#FFF3D9"/>
<path d="M26.6455 65.9743L25.3725 67.2401L25.6908 69.0098C25.7152 69.1573 25.5684 69.2679 25.4337 69.1942L23.8425 68.3708L22.2636 69.2188C22.1412 69.2925 21.9821 69.1819 22.0065 69.0344L22.2881 67.2647L20.9906 66.0234C20.8805 65.9251 20.9417 65.7408 21.0886 65.7285L22.8633 65.4581L23.6467 63.8359C23.7079 63.7007 23.8915 63.7007 23.9649 63.8359L24.7728 65.4458L26.5475 65.6916C26.6822 65.6916 26.7434 65.8637 26.6455 65.9743Z" fill="#FED333"/>
<path d="M43.5161 27.5C43.5161 27.8369 43.2461 28.11 42.9086 28.11C42.5711 28.11 42.3011 27.8369 42.3011 27.5C42.3011 27.1631 42.5711 26.89 42.9086 26.89C43.2461 26.89 43.5161 27.1722 43.5161 27.5Z" fill="#57E1B1"/>
<path d="M56.9841 31.7061C56.9841 31.7061 57.2411 31.3865 57.3391 30.9933C57.388 30.8212 57.3391 30.6492 57.3391 30.6492C57.3391 30.6492 57.6206 30.3665 57.6451 30.2559C57.694 30.0347 57.4859 29.7029 57.4737 29.6783C57.2411 29.3219 56.3843 28.6828 56.0661 28.7688C55.7479 28.8672 56.47 29.9732 56.47 29.9732C56.47 29.9732 55.907 29.6414 55.7723 30.0224C55.6499 30.4034 56.9841 31.7061 56.9841 31.7061Z" fill="#F7A491"/>
<path d="M53.5936 32.2102L54.1444 31.2761C54.1444 31.2761 55.197 30.7108 54.9889 30.3667C54.6462 29.7891 53.1285 30.9443 53.1285 30.9443C53.1285 30.9443 53.1285 31.4973 53.5936 32.2102Z" fill="#F7A491"/>
<path d="M52.6291 15.91C52.6291 16.2489 52.3544 16.52 52.0215 16.52C51.6886 16.52 51.414 16.2489 51.414 15.91C51.414 15.5711 51.6886 15.3 52.0215 15.3C52.3544 15.3 52.6291 15.5711 52.6291 15.91Z" fill="#57E1B1"/>
<path d="M33.7957 7.67499C33.7957 8.17607 33.3839 8.58999 32.8844 8.58999C32.3762 8.58999 31.9731 8.18696 31.9731 7.67499C31.9731 7.17392 32.385 6.75999 32.8844 6.75999C33.3839 6.75999 33.7957 7.17392 33.7957 7.67499Z" fill="#57E1B1"/>
<path d="M27.486 31.7061C27.486 31.7061 27.2289 31.3865 27.131 30.9933C27.082 30.8212 27.131 30.6492 27.131 30.6492C27.131 30.6492 26.8495 30.3665 26.825 30.2559C26.7761 30.0347 26.9841 29.7029 26.9964 29.6783C27.2289 29.3219 28.0857 28.6828 28.404 28.7688C28.7222 28.8672 28 29.9732 28 29.9732C28 29.9732 28.5631 29.6414 28.6977 30.0224C28.8201 30.4034 27.486 31.7061 27.486 31.7061Z" fill="#F7A491"/>
<path d="M30.1665 32.1359L30.0441 30.7963C30.0441 30.7963 29.6035 29.7148 29.9707 29.5673C30.5949 29.3215 31.1947 32.1851 31.1947 32.1851C31.1947 32.1851 30.9621 31.8655 30.1665 32.1359Z" fill="#F7A491"/>
<path d="M26.825 30.3788C26.825 30.3788 27.1922 32.2222 27.486 32.9104C27.6451 33.2668 28.3183 34.6433 28.3183 34.6433L28.6365 38.3916L31.4272 38.0107C31.4272 38.0107 30.4847 35.3069 30.803 34.4958C31.06 33.8567 31.2069 32.5172 31.1947 32.1853C31.1457 31.0547 26.825 30.3788 26.825 30.3788Z" fill="#F7A491"/>
<path d="M30.9499 32.1729L30.3379 33.1069C30.3379 33.1069 28.1102 33.2421 27.437 31.6322L30.9499 32.1729Z" fill="#F47458"/>
<path d="M27.1922 31.5221C27.6084 31.7187 28.0735 31.8416 28.1837 31.7064C28.2938 31.5589 28.1347 31.3869 27.9144 31.2517C28.098 31.3008 28.2449 31.3131 28.2938 31.2394C28.4162 31.0919 28.2449 30.9076 28.0123 30.7601C28.1347 30.7847 28.2449 30.7847 28.2816 30.7355C28.5508 30.416 27.4248 29.8138 27.4248 29.8138C27.4248 29.8138 26.8373 29.4205 26.6659 29.6417C26.6414 29.6786 26.6414 29.9121 26.6781 29.9613C26.7761 30.0842 26.6414 30.2439 26.6414 30.2562C26.6169 30.3422 26.6169 30.4406 26.6292 30.4774C26.6904 30.6126 26.5068 30.9444 26.4945 30.969C26.4701 31.0059 26.4823 31.1165 26.519 31.2394C26.7271 31.731 28.049 34.3733 28.3428 34.6559C28.6977 35 28.918 33.5499 28.918 33.5499C28.918 33.5499 27.131 31.9399 27.1922 31.5221Z" fill="#F7A491"/>
<path d="M57.6572 30.3788C57.6572 30.3788 57.2901 32.2222 56.9963 32.9104C56.8372 33.2668 56.164 34.6433 56.164 34.6433L55.8457 38.3916L53.0551 38.0107C53.0551 38.0107 53.9975 35.3069 53.6793 34.4958C53.4223 33.8567 53.2754 32.5172 53.2876 32.1853C53.3243 31.0547 57.6572 30.3788 57.6572 30.3788Z" fill="#F7A491"/>
<path d="M45.4174 44.1062C45.4174 44.1062 43.9609 42.5699 42.7981 44.438C42.7981 44.438 41.8924 43.9341 41.2681 44.8312C41.2681 44.8312 39.6402 44.3397 39.2485 46.7853C39.2485 46.7853 38.4162 46.6255 38.2938 47.621C38.1837 48.6165 38.6855 49.2924 38.6855 49.2924C38.6855 49.2924 38.2204 49.6488 38.4285 50.5705C38.6121 51.3571 39.2608 51.4677 39.2608 51.4677C39.2608 51.4677 39.4321 52.7827 40.0074 53.1883C40.5827 53.5815 41.3538 53.3972 41.3538 53.3972C41.3538 53.3972 41.5619 54.11 42.2228 54.0485C42.8838 53.9871 43.7039 53.348 44.4505 53.6307C45.1971 53.9133 47.1188 53.6184 47.1188 53.6184C47.1188 53.6184 49.2853 52.6475 48.6365 50.4231C48.6365 50.4231 49.7748 49.3907 48.7834 48.1495C48.7834 48.1495 49.5056 46.2077 48.0735 45.0648C46.617 43.9341 45.4174 44.1062 45.4174 44.1062Z" fill="#07345A"/>
<path d="M53.1285 78.5914C52.9816 78.1859 52.847 77.8172 52.7124 77.4731C51.0844 77.8295 49.2485 78.2227 47.3513 78.6283L47.1187 85.5966C47.1187 85.0558 48.5385 96.7065 48.5385 96.7065C48.5385 96.7065 44.6707 104.412 42.1616 109.181C43.1897 110.471 43.9853 111.036 45.4786 111.921C49.3831 107.226 54.3647 98.9432 54.5851 97.5176C54.7197 96.6696 54.8299 83.3844 53.1285 78.5914Z" fill="#4AC69B"/>
<path d="M38.5997 80.595C39.0404 85.4248 39.7748 92.7249 39.9094 95.1829C36.8005 95.6376 29.4565 97.8497 28.0857 97.8497C27.5716 99.0173 27.2778 100.431 27.645 101.598C27.7185 101.832 42.1248 102.286 45.8458 99.9021C46.8127 99.2753 47.1187 92.6143 47.1309 85.5846L47.3635 78.6163C44.2056 79.2922 41.317 79.9559 38.5997 80.595Z" fill="#57E1B1"/>
<path d="M48.9547 55.8674L45.4173 56.4081C45.4173 56.4081 42.749 56.445 42.0391 56.4573C41.9779 56.4573 39.1995 70.0497 38.5263 75.1622C37.8531 80.2747 38.3794 81.1842 38.3794 81.1842C38.3794 81.1842 43.0795 82.2411 46.5679 81.9339C50.1909 81.6143 54.2545 79.648 54.2545 79.648C54.2545 79.648 50.0563 70.0497 49.4443 66.9773C48.8323 63.9048 48.9547 55.8674 48.9547 55.8674Z" fill="white"/>
<path d="M56.2252 36.9051C56.2252 36.9051 55.9192 49.5021 55.5398 50.2763C54.989 51.407 51.0233 59.4445 51.0233 59.4445C51.0233 59.4445 53.9976 71.9554 55.246 76.2691C55.3684 76.6992 55.9315 79.5136 55.9315 79.7839C55.9315 80.3861 53.2999 81.1604 52.9816 81.1112C52.7001 81.0744 50.399 69.1779 48.9425 63.3526C48.4406 61.3739 47.5961 59.5182 46.4211 57.8468L45.4052 56.3966L51.4517 49.0474C51.4517 49.0474 52.7613 37.4213 52.7613 36.6962C52.7613 36.5119 55.8458 36.1923 56.2252 36.9051Z" fill="#5786FF"/>
<path d="M42.0392 56.4455L35.9805 47.2774C35.9805 47.2774 32.0515 37.6423 31.9535 37.2859C31.8556 36.9417 28.7712 37.335 27.792 37.2367C27.4737 37.2121 31.9046 47.3511 32.3697 49.0471C32.9205 51.0503 35.8825 58.8666 35.8825 58.8666C35.8825 58.8666 37.9266 63.549 37.6084 67.1622C37.0821 73.1718 36.0294 81.8238 36.2865 82.0819C37.8777 83.0896 42.8593 83.0527 43.251 82.426C47.4982 75.5437 42.0392 56.4455 42.0392 56.4455Z" fill="#5786FF"/>
<path d="M45.1726 54.5654L45.4419 56.5318C45.4419 56.5318 46.0294 59.3584 45.2705 59.8991C44.5116 60.4399 42.0392 56.4457 42.0392 56.4457L42.2962 51.4807L45.1726 54.5654Z" fill="#F7A491"/>
<path d="M42.2105 53.0904C42.8347 54.7864 44.328 55.831 45.3929 56.2366L45.1726 54.5775L42.2962 51.4927L42.2105 53.0904Z" fill="#F47458"/>
<path d="M38.2571 48.1009C38.2571 48.8629 38.6855 49.4774 39.2118 49.4774C39.7381 49.4774 40.1665 48.8629 40.1665 48.1009C40.1665 47.339 39.7381 46.7245 39.2118 46.7245C38.6855 46.7245 38.2571 47.339 38.2571 48.1009Z" fill="#07345A"/>
<path d="M41.1334 45.1514C41.1334 45.5815 41.6597 45.9379 42.2962 45.9379C42.9449 45.9379 43.459 45.5815 43.459 45.1514C43.459 44.7212 42.9327 44.3648 42.2962 44.3648C41.6475 44.3648 41.1334 44.7212 41.1334 45.1514Z" fill="#07345A"/>
<path d="M44.0465 46.2575C45.5887 45.729 47.2289 46.7491 47.4614 48.3467C47.5594 49.035 47.6573 49.9075 47.6695 50.8661C47.7062 53.152 46.5312 55.3888 45.4908 55.3888C44.4504 55.3888 41.5863 53.9017 41.4884 50.6572C41.4394 48.6417 42.4308 46.8105 44.0465 46.2575Z" fill="#F7A491"/>
<path d="M42.2595 50.9024C42.2595 51.4062 41.929 51.8118 41.5129 51.8118C41.0967 51.8118 40.7662 51.4062 40.7662 50.9024C40.7662 50.3985 41.0967 49.9929 41.5129 49.9929C41.929 49.9929 42.2595 50.3985 42.2595 50.9024Z" fill="#F7A491"/>
<path d="M48.5386 45.1138C49.6034 45.9617 49.9829 47.2645 49.3709 48.0018C48.7589 48.7515 47.4003 48.6655 46.3354 47.8052C45.2705 46.9572 44.8911 45.6545 45.5031 44.9171C46.1028 44.1797 47.4737 44.2658 48.5386 45.1138Z" fill="#07345A"/>
<path d="M45.7356 45.8143C45.7356 46.183 45.295 46.4903 44.7442 46.4903C44.1934 46.4903 43.7527 46.1953 43.7527 45.8143C43.7527 45.4456 44.1934 45.1384 44.7442 45.1384C45.295 45.1384 45.7356 45.4456 45.7356 45.8143Z" fill="#07345A"/>
<path d="M47.8532 49.5261C48.3196 49.5261 48.6977 49.141 48.6977 48.6659C48.6977 48.1907 48.3196 47.8056 47.8532 47.8056C47.3867 47.8056 47.0086 48.1907 47.0086 48.6659C47.0086 49.141 47.3867 49.5261 47.8532 49.5261Z" fill="#07345A"/>
<path d="M53.5203 32.1729L54.1323 33.1069C54.1323 33.1069 56.3599 33.2421 57.0331 31.6322L53.5203 32.1729Z" fill="#F47458"/>
<path d="M55.1237 33.1558C55.1237 33.1558 54.2546 32.8854 53.8385 32.0497C53.7895 31.9514 53.6549 30.8699 53.2632 30.9682C52.6145 31.128 53.4223 33.463 53.4223 33.463C53.4223 33.463 54.3158 33.4016 55.1237 33.1558Z" fill="#F7A491"/>
<path d="M57.2901 31.5221C56.8739 31.7187 56.4088 31.8416 56.2987 31.7064C56.1885 31.5589 56.3476 31.3869 56.5679 31.2517C56.3843 31.3008 56.2375 31.3131 56.1885 31.2394C56.0661 31.0919 56.2375 30.9076 56.47 30.7601C56.3476 30.7847 56.2375 30.7847 56.2007 30.7355C55.9315 30.416 57.0575 29.8138 57.0575 29.8138C57.0575 29.8138 57.6451 29.4205 57.8164 29.6417C57.8409 29.6786 57.8409 29.9121 57.8042 29.9613C57.7063 30.0842 57.8409 30.2439 57.8409 30.2562C57.8654 30.3422 57.8654 30.4406 57.8531 30.4774C57.7919 30.6126 57.9755 30.9444 57.9878 30.969C58.0123 31.0059 58 31.1165 57.9633 31.2394C57.7552 31.731 56.4333 34.3733 56.1395 34.6559C55.7846 35 55.5643 33.5499 55.5643 33.5499C55.5643 33.5499 57.3391 31.9399 57.2901 31.5221Z" fill="#F7A491"/>
</g>
<defs>
<linearGradient id="paint0_linear" x1="0" y1="0" x2="89.229" y2="8.81364" gradientUnits="userSpaceOnUse">
<stop stop-color="#5081FF" stop-opacity="0.4"/>
<stop offset="1" stop-color="#5081FF" stop-opacity="0.4"/>
</linearGradient>
</defs>
</svg>
