<svg width="82" height="82" viewBox="0 0 82 82" fill="none" xmlns="http://www.w3.org/2000/svg">
<rect width="82" height="82" rx="41" fill="url(#paint0_linear)" fill-opacity="0.4"/>
<mask id="mask0" mask-type="alpha" maskUnits="userSpaceOnUse" x="0" y="0" width="82" height="82">
<rect width="82" height="82" rx="41" fill="white"/>
</mask>
<g mask="url(#mask0)">
<path d="M55.2838 51.4424L55.5901 82.3206C55.5901 83.9135 56.0803 84.8325 58.3471 85.1388C61.2266 85.5064 62.0844 85.0163 62.5132 84.2198C63.3097 82.7494 71.0905 53.2191 72.3771 51.1974C73.6637 49.2368 55.2838 51.4424 55.2838 51.4424Z" fill="#2A4280"/>
<path d="M84.2014 40.7799C85.7944 40.7799 87.2648 41.8826 87.6324 43.4756C87.8162 44.3946 87.9999 45.6199 87.9999 47.0903C87.9999 48.867 87.8774 49.9698 87.4486 50.95C86.8972 52.1141 85.7331 52.8493 84.4465 52.9106C78.1974 53.1556 55.5901 54.0133 50.8726 55.1161C45.3587 56.4027 27.0401 64.5511 27.0401 64.5511L30.5323 23.2577C30.5323 23.2577 47.3805 36.9201 58.1021 39.0644C66.4343 40.6573 79.0551 40.8411 84.2014 40.7799Z" fill="white"/>
<path d="M72.7448 53.4018C70.4167 53.5243 67.966 53.6468 65.5767 53.7694C67.047 48.9294 66.4957 43.4154 65.6992 40.107C68.0886 40.3521 70.5392 40.4746 72.8673 40.5972C73.9701 45.2534 73.7863 49.6645 72.7448 53.4018Z" fill="#5785FF"/>
<path d="M9.08926 42.4961C9.02799 57.445 16.1349 69.637 25.0185 69.6983C33.9021 69.7595 41.1927 57.6901 41.3153 42.8024C41.4378 27.8535 34.3309 15.6615 25.4473 15.6002C16.5637 15.539 9.21179 27.5471 9.08926 42.4961Z" fill="#E5E6ED"/>
<path d="M10.3146 42.4957C10.192 55.1778 16.2574 65.5317 23.8544 65.593C31.3901 65.6543 37.6393 55.4228 37.7006 42.6795C37.8231 29.9974 31.7577 19.6434 24.1607 19.5821C16.625 19.5821 10.4371 29.8136 10.3146 42.4957Z" fill="#2A4280"/>
<path d="M26.9176 44.8879C26.6113 40.3542 29.552 36.4332 33.5344 36.1881C34.8822 36.0656 36.1688 36.4332 37.3329 37.1071C37.5779 38.9451 37.7617 40.7831 37.7005 42.7436C37.7005 46.1133 37.2103 49.2991 36.4139 52.1786C35.8625 52.3624 35.3111 52.5462 34.6984 52.5462C30.7161 52.8525 27.2239 49.3604 26.9176 44.8879Z" fill="#FED333"/>
<path d="M50.8115 28.3424C50.8728 27.8523 50.8728 27.4234 50.6277 26.9333C50.8728 26.9945 51.1791 26.9945 51.1791 26.872C51.1791 26.6882 51.1179 26.4431 51.2404 26.4431C51.3629 26.4431 51.4855 26.5657 51.608 26.6269C51.8531 26.8107 52.0981 26.8107 52.4045 26.8107C52.527 27.1171 52.7721 27.6072 52.5883 27.9748C52.527 28.1586 52.0369 28.0973 51.7918 28.1586C51.4855 28.2811 51.1179 28.2811 50.8115 28.3424Z" fill="#F7A491"/>
<path d="M57.4283 13.7643C57.4283 13.7643 59.3888 13.6418 62.0845 14.9284L60.8592 20.3811C60.8592 20.3811 59.5726 19.5846 57.7959 19.7072L57.4283 13.7643Z" fill="white"/>
<path d="M58.7149 16.6417C58.7149 15.7227 58.6536 14.8037 58.6536 13.8847C57.9184 13.7622 57.4283 13.7622 57.4283 13.7622L57.7959 19.705C58.286 18.9086 58.5311 19.0924 58.6536 19.0311C58.6536 18.2346 58.7761 17.3769 58.7149 16.6417Z" fill="#C6C7D7"/>
<path d="M46.5229 14.007C46.5229 14.007 53.6298 11.1887 58.2861 12.169L58.6537 18.9695C58.6537 18.9695 54.4876 18.0505 48.7898 20.5625L46.5229 14.007Z" fill="white"/>
<path d="M46.9015 13.9374L46.3228 14.1384L51.9311 30.2864L52.5098 30.0854L46.9015 13.9374Z" fill="#2A4280"/>
<path d="M52.037 28.3433V26.4441C52.037 26.4441 57.796 26.5053 60.1854 25.7701C62.5748 25.0962 65.8219 22.2167 67.1085 22.7068C68.3951 23.1357 69.1915 24.4835 67.5986 25.7089C66.0057 26.9342 62.2072 28.037 60.553 28.282C59.5115 28.5271 52.956 28.3433 52.037 28.3433Z" fill="#F54554"/>
<path d="M61.6556 27.1807C63.6774 26.3229 65.5767 24.485 67.2309 22.7695C68.4562 23.2596 69.1914 24.5462 67.5985 25.7715C66.0055 26.9969 62.207 28.0997 60.5529 28.3447C60.0015 28.406 58.1022 28.4673 56.2642 28.406C58.1635 28.2222 60.0015 27.8546 61.6556 27.1807Z" fill="#CC3B47"/>
<path d="M61.7168 50.7059C61.7168 50.7059 62.8196 52.5439 62.697 52.9727C62.5132 53.4016 58.6535 55.6684 58.1021 55.4846C57.5507 55.3008 57.4894 54.6882 58.1633 54.0755C58.776 53.5241 59.3887 53.3403 59.8175 52.7889C60.1851 52.2988 59.8175 51.0735 59.8175 51.0735L61.7168 50.7059Z" fill="#2A4280"/>
<path d="M68.2724 35.3274C68.2724 35.3274 67.476 35.94 66.6795 35.8788C65.883 35.7562 57.7959 36.614 56.9994 37.2879C56.203 37.9618 59.5726 51.5629 59.5726 51.5629L62.3909 51.0728C62.3909 51.0728 61.4106 41.1477 61.5331 41.0251C61.7169 40.9639 65.9443 40.9639 73.1124 40.9639C74.8892 40.9639 76.8497 37.2879 74.5828 34.7147L68.2724 35.3274Z" fill="#2950B3"/>
<path d="M67.047 20.1341C67.3533 20.0115 67.5984 19.8277 67.7822 19.644C67.9047 20.5017 68.211 21.9721 69.0688 22.7685C69.0688 22.7685 67.3533 23.5037 65.8829 23.1974C65.8829 23.1974 66.0667 21.2369 65.7604 20.3179C66.1892 20.3791 66.6181 20.3179 67.047 20.1341Z" fill="#F7A491"/>
<path d="M67.9047 22.5235C67.6596 21.6657 66.7406 21.1143 65.8829 21.1143C65.8829 20.808 65.8216 20.5629 65.7604 20.3179C66.1892 20.3179 66.6181 20.3179 67.047 20.1341C67.3533 20.0115 67.5984 19.8277 67.7822 19.644C67.9047 20.5017 68.211 21.9721 69.0688 22.7685C69.0688 22.7685 68.6399 22.9523 68.0272 23.0749C68.0272 22.9523 67.966 22.7073 67.9047 22.5235Z" fill="#F47458"/>
<path d="M67.5372 15.4161C67.5372 15.4161 65.4542 14.7421 64.8415 15.171C64.1676 15.5999 63.9391 16.2943 63.6774 17.1929C63.3761 18.2276 63.6774 19.8861 63.6774 19.9498C63.6774 20.011 63.7387 21.4201 64.6577 21.6039C65.9443 21.9103 67.6597 20.93 68.2111 20.1336C68.7625 19.3984 69.4977 15.9062 67.5372 15.4161Z" fill="#F7A491"/>
<path d="M63.6774 15.5382C63.7999 15.4157 64.045 15.2319 64.1063 15.1093C64.1675 14.9868 64.1675 14.8643 64.2901 14.7417C64.5351 14.4354 64.5964 14.1903 65.5154 13.884C66.3119 13.6389 67.3534 13.9453 68.0273 14.4354C68.2724 14.6192 68.4562 14.8643 68.64 15.1093C68.7012 15.1706 68.8238 15.4157 68.7625 15.4769C68.7012 15.5994 68.3949 15.6607 68.3336 15.722C68.1498 15.8445 68.0273 15.967 67.8435 16.0896C66.9245 16.8248 65.4541 17.6825 64.4126 16.641C64.2901 16.5184 64.1675 16.3346 64.045 16.2121C63.8612 16.641 63.7387 17.1311 63.7387 17.56C63.7387 17.56 63.3711 17.3149 63.3098 16.886C63.1873 16.2121 63.4323 15.7832 63.6774 15.5382Z" fill="#110239"/>
<path d="M68.0889 15.4781C68.334 15.3556 68.8241 15.4168 69.0691 15.4168C69.6205 15.5394 69.9269 15.907 69.9881 16.4583C70.0494 16.7647 70.1107 17.1323 70.1107 17.4386C70.1107 17.99 70.0494 18.3576 69.8656 18.909C69.6818 19.3991 69.4367 19.8893 69.0079 20.2568C68.6403 20.5632 67.9051 20.992 67.5375 20.8082C67.415 20.747 67.1699 19.7667 67.2312 19.5217C67.2924 19.2766 67.415 19.2766 67.5988 19.1541C67.9051 18.9703 68.2727 18.6027 68.0276 18.1738C67.66 17.6224 67.0474 17.8675 66.8023 18.6639C66.8023 18.6639 66.5572 19.0928 66.4347 19.0315C66.3122 18.9703 65.6382 16.7647 68.0889 15.4781Z" fill="#110239"/>
<path d="M75.5632 34.5309C75.5632 34.5309 72.6224 36.7977 66.6183 35.7562C66.6183 35.7562 66.6183 34.0407 66.1282 32.3253C65.6381 30.6098 64.8416 27.3015 64.8416 25.586C64.8416 23.6255 65.8831 22.7065 65.8831 22.7065C65.8831 22.7065 67.0472 23.748 68.7014 22.4002C68.7014 22.4002 71.8872 23.1354 73.4189 26.8113C74.9505 30.4873 75.5632 34.5309 75.5632 34.5309Z" fill="#F54554"/>
<path d="M68.3337 25.2795C69.8654 26.995 68.395 31.0998 66.4345 33.4279C66.3732 33.0603 66.3119 32.754 66.1894 32.3864C65.9443 31.4674 65.5767 30.1808 65.3317 28.8329C65.8831 28.5266 66.3119 28.0365 66.6183 27.3013C67.1696 25.8309 67.5372 24.8506 68.3337 25.2795Z" fill="#CC3B47"/>
<path d="M55.6516 36.8586C55.4065 37.0424 55.2227 37.2262 54.9164 37.2262C54.7939 37.2262 54.6713 37.2262 54.5488 37.3488C54.4263 37.41 54.2425 37.4713 54.1199 37.4713C53.9974 37.5326 53.8136 37.5326 53.7523 37.6551C53.6298 37.7776 53.8749 37.8389 53.9974 37.8389C54.1812 37.8389 54.6101 37.5326 54.7326 37.6551C54.8551 37.7776 54.3037 38.084 54.1812 38.1452C53.9361 38.2678 53.6911 38.1452 53.446 38.2065C53.2622 38.2065 53.2009 38.2678 53.3235 38.3903C53.3847 38.5128 53.5685 38.5128 53.6911 38.5128C53.9361 38.5128 54.2425 38.5128 54.4875 38.3903C54.3037 38.5128 53.9361 38.5741 53.7523 38.5741C53.6298 38.5741 52.9559 38.5128 52.9559 38.7579C52.9559 39.248 54.365 38.9417 54.5488 38.7579C54.3037 38.8804 54.0587 38.9417 53.8136 39.003C53.6911 39.0642 53.3235 39.1255 53.5073 39.3093C53.8136 39.6156 54.4875 39.1255 54.7939 38.9417C54.6101 39.1255 54.4263 39.1868 54.1812 39.3093C53.8749 39.4318 54.1199 39.6156 54.4263 39.4931C54.5488 39.4318 54.7939 39.3093 54.8551 39.3093C55.4065 39.003 55.6516 38.6966 55.9579 38.1452C56.0804 37.9614 56.5093 37.7164 56.448 37.5326C56.448 37.2262 55.9579 37.0424 55.6516 36.8586Z" fill="#F7A491"/>
<path d="M55.2227 36.6143L56.3867 38.2072C56.3867 38.2072 63.8612 34.9601 64.5351 34.1024C65.209 33.2447 67.4146 30.1201 67.7822 29.2624C68.5787 27.3019 69.5589 25.035 67.7822 24.6062C66.802 24.3611 66.1893 24.6062 65.5766 26.0765C64.7802 28.0371 63.0035 31.1004 62.2683 32.0806C62.0232 32.4482 55.2227 36.6143 55.2227 36.6143Z" fill="#F54554"/>
<path d="M49.9539 26.9975C49.8314 27.1813 50.1377 27.9165 50.4441 28.1616C50.6891 28.4066 50.9342 28.3454 51.118 28.2228C51.3631 28.1003 51.6081 28.039 51.6694 27.9165C51.7307 27.3651 51.2405 27.794 50.9955 27.8552C50.9955 27.8552 51.6081 27.5489 51.6081 27.3038C51.6081 26.8137 50.8729 27.3651 50.6279 27.4876C50.8117 27.4264 51.1793 27.1813 51.1793 27.12C51.3018 26.9975 51.2405 26.875 51.1793 26.8137C50.9955 26.6912 50.3828 27.12 50.3828 27.12C50.5053 27.0588 50.9342 26.875 50.7504 26.6299C50.6279 26.5074 50.4441 26.6299 50.3215 26.6299C50.199 26.6912 50.0152 26.875 49.9539 26.9975Z" fill="#F7A491"/>
<path d="M51.4243 26.9345C51.363 26.9345 51.3017 26.8732 51.2405 26.8732C51.2405 26.6894 50.5053 26.6282 50.3827 26.5669C49.8926 26.3218 50.0764 26.0155 50.3215 26.0768C50.444 26.138 50.8116 26.1993 50.9341 26.2606C51.0567 26.3218 51.3017 26.3218 51.4243 26.3218C51.5468 26.3218 51.9144 26.6894 52.0369 26.7507C52.1594 26.9345 51.6693 27.057 51.4243 26.9345Z" fill="#F7A491"/>
<path d="M-0.958485 32.4478C-1.14228 32.8767 0.266838 33.7957 2.16609 34.4696C4.06534 35.1435 5.71953 35.3886 5.84206 34.9597C6.02586 34.5309 4.61674 33.6119 2.71749 32.938C0.818234 32.264 -0.774687 32.0802 -0.958485 32.4478Z" fill="white"/>
<path d="M2.47246 23.9938C2.28866 24.4226 3.63652 25.4029 5.47451 26.1994C7.31249 26.9958 8.96668 27.3021 9.15048 26.8733C9.33428 26.4444 7.98642 25.4642 6.14843 24.6677C4.24918 23.9325 2.65626 23.6262 2.47246 23.9938Z" fill="white"/>
<path d="M-0.100651 55.0554C0.0218811 55.4843 1.67607 55.3618 3.57532 54.7491C5.47457 54.1364 6.94496 53.34 6.82243 52.9111C6.69989 52.4823 5.04571 52.6048 3.14646 53.2175C1.2472 53.7688 -0.223184 54.6266 -0.100651 55.0554Z" fill="white"/>
<path d="M3.39156 64.184C3.57536 64.6128 5.22955 64.3065 7.06753 63.5713C8.90552 62.8361 10.3146 61.8559 10.1308 61.4883C9.94704 61.0594 8.29286 61.3657 6.45487 62.1009C4.61689 62.8361 3.20777 63.8164 3.39156 64.184Z" fill="white"/>
<path d="M-2 43.8437C-2 44.2726 -0.345813 44.5789 1.67597 44.4564C3.69775 44.3338 5.29068 43.905 5.22941 43.4761C5.22941 43.0472 3.57522 42.7409 1.55344 42.8634C-0.407079 42.986 -2 43.4148 -2 43.8437Z" fill="white"/>
</g>
<defs>
<linearGradient id="paint0_linear" x1="0" y1="0" x2="89.229" y2="8.81364" gradientUnits="userSpaceOnUse">
<stop stop-color="#5081FF" stop-opacity="0.4"/>
<stop offset="1" stop-color="#5081FF" stop-opacity="0.4"/>
</linearGradient>
</defs>
</svg>
